<svg width="236" height="38" viewBox="0 0 236 38" fill="none" xmlns="http://www.w3.org/2000/svg">
<path d="M33.0528 0.199408L32.7385 0.393568V2.62378L32.8685 2.7025C32.9607 2.76022 33.0962 2.78121 33.3184 2.77071L33.6327 2.75497L33.7248 1.88912C33.7736 1.41159 33.817 0.876343 33.817 0.703174C33.8224 0.38832 33.817 0.372577 33.6056 0.188912C33.4864 0.0839612 33.3834 0 33.3726 0C33.3671 0 33.2208 0.0892088 33.0528 0.199408Z" fill="#C9673C"/>
<path d="M34.3209 2.61329C34.2559 2.86518 34.1854 3.21152 34.1691 3.38469C34.1366 3.67855 34.1475 3.71528 34.283 3.87271C34.4347 4.05113 34.6786 4.19806 34.8141 4.19806C34.8791 4.19806 35.6162 3.04359 35.6107 2.94389C35.6053 2.90191 34.5377 2.15151 34.4781 2.15151C34.4564 2.15151 34.3805 2.35616 34.3209 2.61329Z" fill="#C9673C"/>
<path d="M29.4595 2.60277C29.026 2.69198 28.2347 3.03832 27.747 3.36367C27.373 3.60506 26.4192 4.39744 26.1265 4.7018L25.9368 4.89596L26.1265 4.79101C26.2295 4.72804 27.1237 4.22952 28.1046 3.67328C29.091 3.11704 29.9419 2.62901 30.0015 2.58703C30.1044 2.52406 30.1045 2.51881 29.9744 2.52406C29.8985 2.52406 29.6709 2.56079 29.4595 2.60277Z" fill="#C9673C"/>
<path d="M39.3232 2.55555C39.3665 2.59753 42.6399 4.45517 43.2523 4.78576C43.6534 5.00091 42.1847 3.72576 41.5723 3.32169C41.1875 3.06981 40.4775 2.74446 40.1307 2.65525C39.6863 2.5503 39.2581 2.49258 39.3232 2.55555Z" fill="#C9673C"/>
<path d="M29.8226 3.12236C28.9609 3.56841 27.1454 4.80683 24.9342 6.45982C24.2351 6.97932 22.8585 7.92913 21.8722 8.56409C16.0732 12.3213 15.114 13.2082 13.0654 16.7398C12.079 18.44 10.7241 20.9536 10.4857 21.5256C9.79737 23.1733 9.33128 25.4035 9.07114 28.2844C8.99526 29.1608 8.97359 29.8744 8.97901 32.1414C8.98443 33.6684 9.00611 35.0276 9.03321 35.1535C9.08198 35.3791 9.09824 35.3424 9.5589 33.7629C10.0846 31.9577 10.2201 31.37 10.4586 29.8062C10.5453 29.2133 10.6699 28.5153 10.735 28.2582C11.071 26.8466 11.9977 24.0392 12.6589 22.4229C13.2984 20.8696 14.068 19.5105 15.3849 17.6319C16.3008 16.3252 16.691 15.8215 17.3197 15.1393C18.3657 14.0111 20.5823 11.9435 21.3844 11.3558C21.5036 11.2666 22.4087 10.6684 23.3896 10.0229C24.376 9.38271 25.422 8.67429 25.72 8.45389C26.4246 7.93438 27.1725 7.20497 28.0775 6.16595C29.0206 5.07971 29.4758 4.62317 29.9148 4.29782C30.3971 3.94623 31.0692 3.61039 31.8441 3.33751C31.9309 3.30603 31.8929 3.27454 31.6274 3.16959C30.744 2.81801 30.4242 2.81276 29.8226 3.12236Z" fill="#C9673C"/>
<path d="M38.2935 2.9859C38.1147 3.03838 37.8491 3.12758 37.6974 3.19055C37.4697 3.27976 37.4427 3.30075 37.5348 3.33749C38.2719 3.60511 38.6892 3.80452 39.204 4.12987C39.7568 4.4867 40.0982 4.81205 41.128 5.98226C42.808 7.88712 43.2362 8.23871 46.282 10.2275C47.2195 10.8415 48.1355 11.4607 48.3143 11.6076C49.4199 12.4892 51.7937 14.7982 52.6554 15.8162C53.0456 16.2832 54.2216 17.931 54.8069 18.8388C55.9884 20.6649 56.5845 21.9086 57.4192 24.2963C58.2484 26.6419 58.6711 28.2057 58.9149 29.78C59.1642 31.4225 59.3052 32.0364 59.8254 33.7943C60.2698 35.3161 60.297 35.3844 60.3349 35.1587C60.3566 35.0275 60.3891 34.0252 60.4108 32.9285C60.5083 27.6442 59.8905 23.5354 58.6223 20.9641C57.972 19.6469 56.2052 16.5036 55.4518 15.3334C53.9506 12.9982 52.6445 11.8858 47.4797 8.55357C46.5692 7.96584 45.2197 7.03177 44.4718 6.48078C42.1414 4.74383 40.1633 3.4057 39.4316 3.06461C39.0035 2.85996 38.7813 2.84422 38.2935 2.9859Z" fill="#C9673C"/>
<path d="M23.3302 3.0436C18.3334 3.3742 13.369 5.8353 8.83829 10.2328C8.28549 10.768 7.50508 11.5814 7.10404 12.0379C6.41033 12.8198 5.09879 14.4623 5.09879 14.541C5.09879 14.562 5.28848 14.5148 5.52152 14.4308C5.74914 14.3521 6.76801 14.032 7.78147 13.7224C12.6537 12.2426 12.865 12.1691 13.4341 11.7021C13.7593 11.4397 14.583 10.5686 14.583 10.4846C14.583 10.4059 13.9706 10.3849 13.4124 10.4374C12.3122 10.5529 10.1281 11.0356 8.61066 11.5079C8.10122 11.6654 8.11749 11.5919 8.64319 11.361C9.38025 11.0304 10.5671 10.7103 13.7592 9.97039C15.5748 9.54533 16.0572 9.41939 16.3065 9.28296C16.6804 9.0783 17.5638 8.51156 18.2846 8.01304C18.9566 7.55126 18.9404 7.53027 17.7535 7.53552C16.4419 7.54076 14.9461 7.76641 12.9843 8.26493C11.6402 8.60602 11.7648 8.58503 11.9545 8.4276C12.697 7.80839 15.6399 7.33611 19.1355 7.27839C20.1977 7.2574 20.2953 7.23641 20.9239 6.82185C21.2545 6.60145 22.0837 5.88253 22.0458 5.84055C22.0349 5.83006 21.6122 5.88253 21.1082 5.95075C18.8049 6.2761 16.6587 6.49125 16.3552 6.42303C16.2252 6.3968 16.2089 6.38105 16.2685 6.32333C16.5287 6.08194 18.0244 5.81956 20.9077 5.50996C22.0132 5.39451 23.0375 5.26332 23.1839 5.22134C23.6174 5.0954 24.4412 4.53391 25.6335 3.54737L26.1429 3.12231L25.9695 3.09083C25.6552 3.02786 24.0076 3.00162 23.3302 3.0436Z" fill="#C9673C"/>
<path d="M43.9136 3.03835C43.5776 3.06459 43.2903 3.09082 43.274 3.10657C43.2144 3.16954 44.7536 4.38697 45.469 4.84876C45.7237 5.01143 46.0543 5.17936 46.2006 5.22134C46.3524 5.26332 47.3658 5.39451 48.4552 5.50995C51.2788 5.80906 52.4494 6.00322 52.9805 6.26035C53.1919 6.36531 53.1973 6.3653 53.0618 6.41253C52.8179 6.50174 50.5634 6.28134 48.1083 5.92976C47.6964 5.87203 47.3442 5.83005 47.3333 5.84055C47.2954 5.88253 48.1192 6.60145 48.4552 6.82184C49.0838 7.2364 49.1814 7.25739 50.2436 7.27838C53.7338 7.3361 56.682 7.80839 57.4245 8.4276C57.6142 8.58502 57.7389 8.60601 56.3948 8.26492C54.4221 7.7664 52.9263 7.54076 51.6256 7.53551C50.4604 7.53026 50.4279 7.5565 51.0078 7.96056C51.9725 8.62176 52.2164 8.78443 52.7637 9.10453C53.3274 9.43513 53.3382 9.44038 54.6172 9.73424C58.877 10.726 60.1885 11.0776 60.9039 11.4345C61.2128 11.5814 61.2453 11.6653 60.9635 11.5656C59.7983 11.1668 57.0614 10.5529 55.9667 10.4374C55.4301 10.3849 54.7961 10.4059 54.7961 10.4794C54.7961 10.5529 55.4464 11.2718 55.7932 11.5761C56.4436 12.1534 56.5466 12.1901 61.0665 13.5597C62.3509 13.9533 63.6028 14.3416 63.8413 14.4308C64.0852 14.5148 64.2803 14.5725 64.2803 14.5568C64.2803 14.499 63.4782 13.4548 62.9633 12.8408C59.8742 9.14651 56.1347 6.23412 52.4114 4.62311C49.6312 3.42142 46.6342 2.86518 43.9136 3.03835Z" fill="#C9673C"/>
<path d="M31.6816 3.64186C31.3456 3.79404 30.679 4.27682 30.1262 4.77534C29.8119 5.05346 29.5517 5.36831 29.1128 6.00327C28.6196 6.71169 28.4245 6.94783 27.9855 7.33615C26.9666 8.24922 24.9939 9.71854 22.8694 11.1459C21.2382 12.2426 20.8859 12.5207 19.8616 13.5073C18.8373 14.4991 18.2249 15.2022 16.9459 16.8605C14.6263 19.8673 13.6995 21.3052 12.8595 23.2258C12.1658 24.7896 11.781 26.1382 11.1632 29.0716C10.7025 31.2808 10.4153 32.367 9.89499 33.8731C9.67821 34.508 9.4777 35.0748 9.45603 35.1325C9.43435 35.1902 9.64027 34.9803 9.92209 34.6602C11.0114 33.4428 13.1142 31.2598 15.5584 28.8197C17.2114 27.1667 17.7208 26.6314 18.0677 26.1697C18.2086 25.9807 18.6205 25.5557 18.989 25.2303C20.4794 23.8975 20.978 23.378 21.5471 22.5383C22.0457 21.7984 22.5497 21.1215 24.1864 18.97C25.9803 16.6086 26.4192 15.8687 28.8364 11.0724C30.4785 7.81368 30.6411 7.51981 31.5407 6.21317C32.4621 4.88029 32.6897 4.39751 32.603 3.95672C32.5217 3.53166 32.1802 3.41097 31.6816 3.64186Z" fill="#C9673C"/>
<path d="M36.9819 3.59458C36.8247 3.70478 36.7326 3.99865 36.7705 4.26627C36.8356 4.67558 37.0523 5.0744 37.8165 6.20262C38.7974 7.64046 38.9058 7.83462 40.4179 10.8362C43.0789 16.1205 43.3282 16.5351 45.832 19.8148C46.5149 20.7069 47.3604 21.8614 47.718 22.3809C48.2763 23.1995 48.4551 23.4146 49.0729 24.0076C49.4631 24.3854 50.0539 24.9364 50.3899 25.2303C50.7422 25.5451 51.1649 25.9859 51.3925 26.2798C51.6093 26.5579 52.3084 27.3083 52.9479 27.9433C55.5927 30.5776 58.503 33.5792 59.4514 34.6707C59.7061 34.9593 59.9229 35.1954 59.9337 35.1902C59.9392 35.1797 59.847 34.9173 59.7278 34.6024C59.1642 33.1384 58.7035 31.4591 58.1616 28.8564C57.7063 26.6944 57.5004 25.8862 57.0668 24.6478C56.5411 23.1208 55.8311 21.6724 54.9098 20.2556C54.189 19.1431 52.1675 16.4669 51.0077 15.0867C50.3032 14.2471 48.8778 12.8513 48.1841 12.3213C47.9023 12.1009 47.1815 11.5971 46.5854 11.2036C45.3443 10.3744 43.041 8.71096 42.2714 8.0865C41.2037 7.22065 40.8894 6.90055 40.3095 6.06619C39.7188 5.20559 39.1876 4.65459 38.4072 4.08261C37.6918 3.5631 37.2529 3.41092 36.9819 3.59458Z" fill="#C9673C"/>
<path d="M33.107 4.40793C32.4675 5.79853 31.7576 7.16815 31.0205 8.44331C29.8336 10.4846 29.6493 10.8309 28.6196 12.9247C27.113 15.9998 26.9721 16.2412 25.2324 18.7915C22.1161 23.3569 20.4415 25.2985 16.0625 29.4021C12.9137 32.3512 10.6538 34.5762 10.2636 35.1062C9.83002 35.6939 9.10379 36.7854 9.14173 36.7854C9.15798 36.7854 9.33142 36.6752 9.52652 36.5388C9.92215 36.2659 9.91129 36.2606 9.69992 36.8064C9.64573 36.9533 9.60238 37.074 9.61322 37.0793C9.61864 37.0845 10.6267 36.6437 11.8461 36.0927C14.8539 34.7441 15.9379 34.2718 17.5637 33.5949C18.3279 33.28 19.3197 32.8392 19.7695 32.6188C20.7884 32.1256 22.5877 31.1338 23.4114 30.609C24.5929 29.8586 27.1238 27.9485 27.5195 27.5077C28.392 26.5369 30.1479 24.0915 30.6194 23.1995C30.7929 22.8636 31.0909 22.2234 31.2752 21.7774C31.7142 20.7226 32.5001 18.4347 32.6301 17.8207C32.977 16.2202 33.3889 12.6676 33.3889 11.256C33.3889 10.8782 33.416 10.4059 33.4431 10.2065C33.5243 9.66074 33.7899 8.65321 34.0392 7.91855L34.2668 7.26785L34.2235 6.53844C34.191 5.89299 34.1801 5.81952 34.1096 5.90873C33.8441 6.26032 33.2263 8.83163 32.7385 11.6496C32.3483 13.8798 31.4595 17.6265 30.9771 19.0801C30.4243 20.7279 28.4787 23.7505 26.6523 25.7918C26.3705 26.1066 25.6064 26.857 24.9506 27.45C22.8261 29.3968 22.7015 29.486 19.298 31.4959C17.4336 32.5926 16.2359 33.2328 13.4449 34.6234C12.0683 35.3056 10.0847 36.2239 10.0522 36.1924C10.0143 36.1557 12.1117 34.7756 12.6861 34.466C13.0276 34.2771 14.3391 33.5896 15.6018 32.9337C18.3767 31.4959 18.7235 31.2964 19.8833 30.4988C21.6934 29.2499 25.189 26.7048 25.6064 26.3323C26.5819 25.4612 27.4599 24.0758 29.27 20.5757C30.2726 18.6288 30.5273 18.0673 30.9284 16.9234C31.4974 15.3176 31.8064 13.8745 32.1424 11.3085C32.2616 10.4111 32.3971 9.49282 32.4459 9.26193C32.641 8.3436 33.042 7.16815 33.4105 6.46497L33.5406 6.21834L33.3834 5.30001C33.2967 4.79625 33.2208 4.34496 33.21 4.30298C33.1992 4.25575 33.1558 4.29773 33.107 4.40793Z" fill="#C9673C"/>
<path d="M36.0066 5.22659L35.844 6.20264L36.0824 6.71166C36.3859 7.3676 36.7653 8.49058 36.9062 9.16227C36.9712 9.45088 37.0796 10.175 37.1555 10.7628C37.5945 14.1737 37.9847 15.8739 38.8139 17.9205C39.0903 18.6026 40.9871 22.2969 41.6483 23.4461C42.5642 25.0309 43.3717 26.0909 44.0492 26.5894C44.835 27.1772 48.5908 29.8744 49.317 30.3782C50.6502 31.307 50.97 31.4854 54.3626 33.2433C56.8448 34.529 57.2458 34.7546 58.3297 35.4893C58.888 35.8724 59.3324 36.1872 59.3269 36.1977C59.2944 36.224 57.1916 35.2532 55.9018 34.6077C52.856 33.0964 51.7829 32.5139 49.1924 30.9711C46.7265 29.5071 46.4013 29.2657 44.4231 27.4553C42.7647 25.9282 41.9898 25.0466 40.7433 23.273C39.4968 21.494 38.6838 19.9985 38.3207 18.8388C37.7788 17.0966 37.02 13.8431 36.619 11.5447C36.1312 8.7687 35.4863 6.10294 35.2424 5.8668C35.2099 5.83531 35.1774 6.06621 35.1503 6.53849L35.1069 7.2574L35.3833 8.10226C35.8656 9.57158 35.9903 10.2223 35.9903 11.3085C35.9903 12.6467 36.3534 15.8582 36.7003 17.6318C36.8141 18.2091 37.5836 20.5127 38.0172 21.5937C38.4941 22.7692 39.0794 23.8292 39.8436 24.8997C41.5562 27.2926 41.8434 27.6127 43.453 28.8196C45.0572 30.0266 45.6751 30.4516 46.6397 31.0236C48.4228 32.0679 49.7777 32.7448 51.7829 33.5844C53.4088 34.2614 54.8829 34.9068 57.3705 36.0246C58.3839 36.4758 59.3378 36.9061 59.4949 36.9691L59.7713 37.0898L59.6413 36.7172C59.5708 36.5126 59.5112 36.3394 59.5112 36.3237C59.5112 36.3132 59.6683 36.4129 59.858 36.5441C60.0531 36.6752 60.2212 36.7854 60.2374 36.7854C60.2862 36.7854 59.4624 35.5838 58.9963 34.975C58.6386 34.508 57.9992 33.8678 55.685 31.6691C50.325 26.5684 49.6097 25.8548 48.2602 24.291C46.7861 22.575 44.6562 19.6522 42.9273 16.9759C42.2987 16.0051 41.8922 15.2494 40.7053 12.8303C39.6702 10.7208 39.578 10.5581 38.3586 8.4486C37.8817 7.62473 37.1989 6.34957 36.8466 5.61491C36.4889 4.88026 36.1962 4.27154 36.1854 4.26629C36.1746 4.2558 36.0933 4.6861 36.0066 5.22659Z" fill="#C9673C"/>
<path d="M19.027 9.30397C17.1626 10.2065 16.3659 10.6946 15.4229 11.5132C14.5992 12.2269 12.4856 14.4938 11.716 15.4804C10.735 16.745 9.90041 19.1694 9.22296 22.722C9.03328 23.7085 9.0116 23.9657 9.16876 23.4304C9.66194 21.7354 10.5887 19.5682 11.6293 17.6843C12.1116 16.808 12.4205 16.3252 13.0329 15.4856C14.4908 13.4915 16.9025 11.1878 19.5256 9.28298C20.2247 8.77921 20.3114 8.71099 20.2735 8.71099C20.2572 8.71099 19.699 8.97862 19.027 9.30397Z" fill="#C9673C"/>
<path d="M49.1055 8.73724C49.1055 8.74773 49.2681 8.86842 49.474 9.00486C51.1324 10.1541 53.5116 12.2164 54.7906 13.6175C56.2539 15.218 57.1156 16.4617 58.1508 18.4662C59.0612 20.2189 59.7495 21.8719 60.1235 23.1785C60.2156 23.5091 60.3023 23.7558 60.3131 23.7295C60.3402 23.6456 60.0693 22.2182 59.8091 21.069C59.2618 18.6919 58.6114 16.8867 57.9123 15.8424C57.3053 14.9346 54.9749 12.4 53.8476 11.4292C53.2081 10.873 52.3843 10.3325 51.398 9.81823C50.688 9.4509 49.1055 8.7005 49.1055 8.73724Z" fill="#C9673C"/>
<path d="M10.8705 13.14C8.70811 13.6175 6.83293 14.2314 5.4672 14.9084C4.76807 15.26 4.56754 15.4069 4.21527 15.832C2.24797 18.2196 0.887683 21.2317 0.30237 24.4799C0.0747479 25.7394 -0.0661786 27.9486 0.0313735 28.678L0.074739 28.9928L0.193971 28.6518C0.649215 27.3556 2.10708 25.6082 3.44571 24.7423C4.0256 24.3697 5.1908 23.7663 6.29639 23.273C7.30985 22.8165 7.85723 22.4596 8.09027 22.0923C8.17157 21.9611 8.32873 21.5623 8.4317 21.2002C8.71894 20.2347 9.55356 17.0494 9.52646 17.0232C9.51562 17.0127 9.38554 17.1963 9.24463 17.4325C8.96823 17.8995 6.97927 21.0008 6.84378 21.174C6.75165 21.2947 6.75706 21.2737 7.03888 20.623C7.15811 20.3501 7.34237 19.8778 7.45618 19.5735C7.56999 19.2691 7.67297 18.991 7.68381 18.9595C7.70007 18.9228 7.23941 19.3478 6.65952 19.9041C5.45637 21.069 2.87122 23.4147 2.83328 23.378C2.81703 23.3622 2.88206 23.1995 2.97962 23.0159C3.31021 22.3862 4.33992 21.1582 5.84656 19.5997C6.26387 19.1642 6.59989 18.8073 6.58905 18.7968C6.58363 18.7916 6.27472 18.907 5.90619 19.054C5.01738 19.4108 4.67052 19.5315 4.79517 19.4528C4.84936 19.4213 5.14203 19.2376 5.44553 19.054C6.65409 18.3088 10.2473 15.7952 10.0955 15.7952C10.063 15.7952 9.17417 15.9736 8.12277 16.194C7.07138 16.4092 6.05794 16.6191 5.86826 16.6558C5.56476 16.7188 5.53765 16.7188 5.59726 16.6453C5.74901 16.4722 6.19342 16.3147 9.27173 15.3544C10.8922 14.8454 11.2445 14.6513 11.6726 14.0215C11.9002 13.6857 12.1441 13.1505 12.1441 12.9878C12.1441 12.8723 12.0195 12.8881 10.8705 13.14ZM3.96597 19.8673C3.80881 19.9408 3.65166 19.988 3.61914 19.9775C3.56495 19.9618 4.10689 19.7361 4.20444 19.7361C4.23696 19.7414 4.12856 19.7991 3.96597 19.8673ZM6.37769 21.9716C6.33433 22.0556 6.25846 22.1658 6.20969 22.2235C6.12297 22.3232 6.11755 22.3232 6.19342 22.1973C6.23678 22.1238 6.30182 22.0136 6.33975 21.9454C6.37227 21.8824 6.41563 21.8299 6.43189 21.8299C6.44273 21.8299 6.42104 21.8929 6.37769 21.9716Z" fill="#C9673C"/>
<path d="M57.2349 12.9773C57.2349 13.1137 57.4408 13.6385 57.5926 13.8851C57.8202 14.2629 58.27 14.667 58.6548 14.8454C59.0179 15.0081 59.8038 15.2705 61.5164 15.7952C62.8496 16.2045 63.5108 16.4512 63.7167 16.6086L63.8739 16.7293L63.5216 16.6611C63.3265 16.6191 62.3076 16.4092 61.2562 16.194C60.2048 15.9736 59.3214 15.7952 59.2889 15.7952C59.1209 15.7952 62.8008 18.377 64.0256 19.1117C64.3128 19.2901 64.5405 19.4423 64.5351 19.4528C64.5242 19.4633 64.1286 19.3163 63.6571 19.1274C63.1856 18.9385 62.7954 18.7916 62.7845 18.7968C62.7791 18.8073 63.0772 19.1327 63.4566 19.521C64.9903 21.111 66.1176 22.4544 66.4211 23.0526C66.5023 23.2205 66.562 23.3675 66.5457 23.378C66.5078 23.4147 63.9768 21.1215 62.752 19.9408C62.1613 19.3688 61.679 18.9175 61.679 18.928C61.679 18.9805 62.4106 20.8381 62.5027 21.0061C62.5623 21.1215 62.6003 21.2212 62.5894 21.2317C62.5678 21.2474 60.9419 18.7496 60.2644 17.6581C60.0531 17.3118 59.858 17.0127 59.8417 16.9864C59.7929 16.9392 60.7251 20.4918 60.969 21.2947C61.072 21.62 61.2183 21.9874 61.305 22.1185C61.5326 22.4649 62.08 22.8217 63.0826 23.273C64.1069 23.7348 65.3317 24.3645 65.852 24.6898C66.3452 24.9995 67.0606 25.6187 67.5863 26.1959C68.3613 27.0408 68.8328 27.7492 69.1363 28.5416L69.3097 28.9876L69.3476 28.6203C69.4018 28.1322 69.3422 26.4793 69.2392 25.6344C68.8219 22.2182 67.6513 19.2061 65.7057 16.5456C64.8657 15.3964 64.6651 15.2337 63.3048 14.6355C61.9824 14.053 60.4054 13.565 58.4814 13.14C57.3216 12.8881 57.2349 12.8776 57.2349 12.9773ZM65.6027 19.8936C65.7274 19.946 65.787 19.9933 65.7436 19.9933C65.7003 19.9933 65.5431 19.9356 65.3914 19.8621C65.0879 19.7152 65.2559 19.7414 65.6027 19.8936ZM63.2018 22.2235L63.256 22.3284L63.1693 22.2235C63.1205 22.1658 63.0555 22.0713 63.0284 22.0136L62.9742 21.9086L63.0609 22.0136C63.1097 22.0713 63.1747 22.1658 63.2018 22.2235Z" fill="#C9673C"/>
<path d="M31.9255 21.9506C30.0612 25.1883 28.7388 27.1876 27.9963 27.8908C27.3839 28.4733 25.5033 29.9111 24.1755 30.8084C23.3409 31.3752 21.1731 32.5874 20.2463 33.0072C19.6935 33.2591 18.6259 33.6684 16.29 34.5342C15.5747 34.7966 14.7942 35.1062 14.5558 35.2217C14.0897 35.4421 13.5911 35.7359 13.6236 35.7674C13.6345 35.7779 13.9325 35.7307 14.2902 35.6624C17.2601 35.0747 19.7694 34.3296 21.3628 33.5529C22.7827 32.8707 24.7771 31.6638 25.8935 30.8189C27.2376 29.8062 28.0559 29.0085 28.7984 27.9958C29.9744 26.4005 31.5895 23.4094 32.3049 21.5098C32.3916 21.2736 32.462 21.0742 32.4512 21.0637C32.4458 21.0585 32.2073 21.4573 31.9255 21.9506Z" fill="#C9673C"/>
<path d="M37.0524 21.4626C37.4751 22.6118 38.5048 24.7056 39.3232 26.0804C39.9193 27.0879 40.6727 28.1742 41.2038 28.7829C42.4882 30.2627 44.9812 32.0312 47.7073 33.3955C48.9429 34.0147 50.1135 34.445 51.8857 34.9226C53.0997 35.2479 55.7011 35.8199 55.7553 35.7727C55.7878 35.7359 55.3759 35.4945 54.8719 35.2479C54.6064 35.122 53.8314 34.8071 53.1431 34.5552C49.4307 33.1856 48.8129 32.918 47.0732 31.9314C45.8646 31.2493 45.366 30.9344 44.5531 30.3624C42.8676 29.1712 41.3935 27.9905 40.9978 27.5078C40.3475 26.7206 38.9818 24.5901 37.6702 22.3284C37.3017 21.6935 36.9819 21.1477 36.9548 21.1215C36.9277 21.09 36.9711 21.2474 37.0524 21.4626Z" fill="#C9673C"/>
<path d="M60.1181 35.5628C60.1777 35.7045 60.2807 35.8829 60.3458 35.9721C60.4379 36.098 60.4596 36.1085 60.4758 36.0351C60.4921 35.9668 60.0802 35.3161 60.0206 35.3161C60.0098 35.3161 60.0531 35.4263 60.1181 35.5628Z" fill="#C9673C"/>
<path d="M9.0875 35.6415C8.90323 35.9039 8.82195 36.1505 8.9466 36.077C9.01705 36.0351 9.34221 35.4211 9.30969 35.3896C9.29886 35.3739 9.19589 35.4893 9.0875 35.6415Z" fill="#C9673C"/>
<path d="M86.17 34.36C84.83 34.36 83.57 34.1 82.39 33.58C81.37 33.96 80.27 34.15 79.09 34.15C77.93 34.15 77.31 34.14 77.23 34.12C77.23 32.74 77.78 29.76 78.88 25.18C79.98 20.58 80.53 17.97 80.53 17.35C80.53 16.71 80.41 16.14 80.17 15.64C79.95 15.14 79.72 14.76 79.48 14.5L79.15 14.14L79.24 13.45C79.82 13.31 80.98 13.15 82.72 12.97C84.48 12.79 86 12.7 87.28 12.7C90.36 12.7 92.64 13.34 94.12 14.62C95.62 15.88 96.37 17.91 96.37 20.71C96.37 22.89 95.97 25.01 95.17 27.07C94.39 29.11 93.2 30.84 91.6 32.26C90 33.66 88.19 34.36 86.17 34.36ZM87.7 14.83C87.34 14.83 86.95 14.86 86.53 14.92C86.47 16.08 85.96 18.75 85 22.93C84.04 27.09 83.45 29.94 83.23 31.48C83.59 31.66 84.02 31.75 84.52 31.75C85.58 31.75 86.52 31.27 87.34 30.31C88.18 29.35 88.82 28.15 89.26 26.71C90.12 23.79 90.55 21.14 90.55 18.76C90.55 17.32 90.33 16.31 89.89 15.73C89.47 15.13 88.74 14.83 87.7 14.83Z" fill="white"/>
<path d="M104.49 22.75C104.49 23.63 104.24 25 103.74 26.86C103.24 28.7 102.99 29.9 102.99 30.46C102.99 31.02 103.1 31.3 103.32 31.3C103.54 31.3 103.94 31.2 104.52 31L104.79 30.88L105.33 32.38C104.65 32.9 103.8 33.36 102.78 33.76C101.78 34.16 100.87 34.36 100.05 34.36C99.2299 34.36 98.5799 34.13 98.0999 33.67C97.6399 33.21 97.4099 32.55 97.4099 31.69C97.4099 30.81 97.6499 29.48 98.1299 27.7C98.6299 25.9 98.8799 24.76 98.8799 24.28C98.8799 23.54 98.6199 22.84 98.0999 22.18L97.8599 21.85L97.9499 21.34C98.9899 21.02 101.01 20.86 104.01 20.86C104.33 21.22 104.49 21.85 104.49 22.75ZM102.24 18.52C101.34 18.52 100.63 18.28 100.11 17.8C99.6099 17.32 99.3599 16.71 99.3599 15.97C99.3599 15.21 99.6699 14.58 100.29 14.08C100.93 13.56 101.7 13.3 102.6 13.3C103.5 13.3 104.2 13.51 104.7 13.93C105.2 14.35 105.45 14.94 105.45 15.7C105.45 16.46 105.14 17.12 104.52 17.68C103.92 18.24 103.16 18.52 102.24 18.52Z" fill="white"/>
<path d="M106.884 30.58L107.274 24.31C107.274 23.77 107.194 23.35 107.034 23.05C106.894 22.73 106.594 22.29 106.134 21.73L106.254 21.28C107.794 20.92 109.074 20.74 110.094 20.74C111.114 20.74 111.824 20.98 112.224 21.46C112.644 21.92 112.854 22.58 112.854 23.44C112.854 24.3 112.694 25.56 112.374 27.22C112.074 28.88 111.924 29.98 111.924 30.52C111.924 31.04 112.074 31.3 112.374 31.3C112.854 31.3 113.474 30.85 114.234 29.95C115.014 29.03 115.524 28.13 115.764 27.25L113.544 25.12C113.624 24.28 113.804 23.5 114.084 22.78C114.364 22.04 114.614 21.52 114.834 21.22L115.194 20.74C117.614 20.74 118.824 21.74 118.824 23.74C118.824 25.04 118.424 26.51 117.624 28.15C116.844 29.77 115.744 31.21 114.324 32.47C112.904 33.73 111.434 34.36 109.914 34.36C107.894 34.36 106.884 33.1 106.884 30.58Z" fill="white"/>
<path d="M126.287 22.75C126.287 23.63 126.037 25 125.537 26.86C125.037 28.7 124.787 29.9 124.787 30.46C124.787 31.02 124.897 31.3 125.117 31.3C125.337 31.3 125.737 31.2 126.317 31L126.587 30.88L127.127 32.38C126.447 32.9 125.597 33.36 124.577 33.76C123.577 34.16 122.667 34.36 121.847 34.36C121.027 34.36 120.377 34.13 119.897 33.67C119.437 33.21 119.207 32.55 119.207 31.69C119.207 30.81 119.447 29.48 119.927 27.7C120.427 25.9 120.677 24.76 120.677 24.28C120.677 23.54 120.417 22.84 119.897 22.18L119.657 21.85L119.747 21.34C120.787 21.02 122.807 20.86 125.807 20.86C126.127 21.22 126.287 21.85 126.287 22.75ZM124.037 18.52C123.137 18.52 122.427 18.28 121.907 17.8C121.407 17.32 121.157 16.71 121.157 15.97C121.157 15.21 121.467 14.58 122.087 14.08C122.727 13.56 123.497 13.3 124.397 13.3C125.297 13.3 125.997 13.51 126.497 13.93C126.997 14.35 127.247 14.94 127.247 15.7C127.247 16.46 126.937 17.12 126.317 17.68C125.717 18.24 124.957 18.52 124.037 18.52Z" fill="white"/>
<path d="M128.771 34.18H128.261C128.261 32.94 128.541 31.06 129.101 28.54C129.681 26.02 129.971 24.57 129.971 24.19C129.971 23.81 129.881 23.44 129.701 23.08C129.521 22.72 129.341 22.45 129.161 22.27L128.891 22L128.951 21.55C130.131 21.17 132.191 20.98 135.131 20.98C135.331 21.44 135.471 21.92 135.551 22.42C137.371 21.3 138.901 20.74 140.141 20.74C140.981 20.74 141.641 21.02 142.121 21.58C142.601 22.12 142.841 22.78 142.841 23.56C142.841 24.32 142.621 25.55 142.181 27.25C141.741 28.95 141.521 30.06 141.521 30.58C141.521 31.08 141.591 31.33 141.731 31.33L143.321 30.91L143.861 32.41C143.221 32.89 142.381 33.34 141.341 33.76C140.321 34.16 139.381 34.36 138.521 34.36C136.821 34.36 135.971 33.48 135.971 31.72C135.971 30.96 136.181 29.72 136.601 28C137.021 26.28 137.231 25.21 137.231 24.79C137.231 24.35 137.091 24.13 136.811 24.13C136.451 24.13 135.971 24.33 135.371 24.73C135.291 25.09 135.091 25.96 134.771 27.34C134.131 30.24 133.811 32.33 133.811 33.61C132.831 33.99 131.151 34.18 128.771 34.18Z" fill="white"/>
<path d="M144.422 28.57C144.422 26.09 145.172 24.16 146.672 22.78C148.192 21.4 150.062 20.71 152.282 20.71C153.822 20.71 155.052 21.05 155.972 21.73C156.912 22.39 157.382 23.28 157.382 24.4C157.382 25.22 157.132 25.95 156.632 26.59C156.132 27.23 155.522 27.72 154.802 28.06C153.282 28.74 151.962 29.15 150.842 29.29L150.092 29.38C150.312 30.7 150.972 31.36 152.072 31.36C152.552 31.36 153.082 31.26 153.662 31.06C154.242 30.84 154.702 30.62 155.042 30.4L155.552 30.1L156.512 31.39C156.512 31.39 156.402 31.5 156.182 31.72C156.062 31.84 155.772 32.08 155.312 32.44C154.872 32.78 154.402 33.08 153.902 33.34C153.422 33.6 152.802 33.83 152.042 34.03C151.282 34.25 150.522 34.36 149.762 34.36C148.062 34.36 146.742 33.87 145.802 32.89C144.882 31.89 144.422 30.45 144.422 28.57ZM149.972 27.4C150.552 27.32 151.132 26.85 151.712 25.99C152.292 25.11 152.582 24.38 152.582 23.8C152.582 23.2 152.412 22.9 152.072 22.9C151.572 22.9 151.112 23.29 150.692 24.07C150.272 24.85 150.032 25.96 149.972 27.4Z" fill="white"/>
<path d="M165.589 34.36C163.429 34.36 161.679 33.58 160.339 32.02C158.999 30.46 158.329 28.27 158.329 25.45C158.329 23.19 158.759 21.1 159.619 19.18C160.499 17.24 161.759 15.68 163.399 14.5C165.059 13.3 166.839 12.7 168.739 12.7C170.659 12.7 172.239 13.08 173.479 13.84C174.739 14.6 175.369 15.6 175.369 16.84C175.369 18.06 175.029 19.03 174.349 19.75C173.549 19.75 172.629 19.59 171.589 19.27C170.549 18.95 169.769 18.56 169.249 18.1L169.819 15.19C169.399 14.99 168.989 14.89 168.589 14.89C167.429 14.89 166.409 15.9 165.529 17.92C164.649 19.92 164.209 22.27 164.209 24.97C164.209 29.01 165.349 31.03 167.629 31.03C168.989 31.03 170.509 30.29 172.189 28.81L173.599 30.22C173.439 30.48 173.029 30.91 172.369 31.51C171.709 32.09 171.079 32.56 170.479 32.92C169.899 33.28 169.159 33.61 168.259 33.91C167.379 34.21 166.489 34.36 165.589 34.36Z" fill="white"/>
<path d="M189.772 21.85C189.352 23.15 188.992 24.7 188.692 26.5C188.392 28.28 188.242 29.53 188.242 30.25C188.242 30.95 188.352 31.3 188.572 31.3L190.072 30.88L190.612 32.38C189.972 32.88 189.152 33.34 188.152 33.76C187.172 34.16 186.302 34.36 185.542 34.36C184.242 34.36 183.422 33.8 183.082 32.68C181.502 33.8 180.102 34.36 178.882 34.36C177.682 34.36 176.752 33.92 176.092 33.04C175.432 32.16 175.102 30.9 175.102 29.26C175.102 27 175.682 25.01 176.842 23.29C178.002 21.57 179.532 20.71 181.432 20.71C182.472 20.71 183.532 21 184.612 21.58C184.772 21.22 184.902 20.96 185.002 20.8C186.442 20.8 188.032 21.15 189.772 21.85ZM180.742 28.9C180.742 29.9 180.812 30.53 180.952 30.79C181.092 31.05 181.352 31.18 181.732 31.18C182.112 31.18 182.482 31.03 182.842 30.73C182.922 28.41 183.302 25.98 183.982 23.44C183.682 23.26 183.332 23.17 182.932 23.17C182.552 23.17 182.202 23.39 181.882 23.83C181.582 24.27 181.352 24.82 181.192 25.48C180.892 26.74 180.742 27.88 180.742 28.9Z" fill="white"/>
<path d="M198.63 22.72C198.01 22.72 197.48 23.27 197.04 24.37C196.6 25.47 196.38 26.58 196.38 27.7C196.38 30.16 197.09 31.39 198.51 31.39C199.41 31.39 200.43 30.96 201.57 30.1L202.53 31.42C201.69 32.34 200.68 33.06 199.5 33.58C198.34 34.1 197.18 34.36 196.02 34.36C194.46 34.36 193.19 33.89 192.21 32.95C191.25 31.99 190.77 30.55 190.77 28.63C190.77 26.31 191.48 24.41 192.9 22.93C194.34 21.45 196.22 20.71 198.54 20.71C200.04 20.71 201.22 21.02 202.08 21.64C202.94 22.24 203.37 23.01 203.37 23.95C203.37 24.87 203.09 25.67 202.53 26.35C201.87 26.35 201.15 26.23 200.37 25.99C199.61 25.73 199 25.41 198.54 25.03L198.99 22.78C198.87 22.74 198.75 22.72 198.63 22.72Z" fill="white"/>
<path d="M218.425 21.85C218.005 23.15 217.645 24.7 217.345 26.5C217.045 28.28 216.895 29.53 216.895 30.25C216.895 30.95 217.005 31.3 217.225 31.3L218.725 30.88L219.265 32.38C218.625 32.88 217.805 33.34 216.805 33.76C215.825 34.16 214.955 34.36 214.195 34.36C212.895 34.36 212.075 33.8 211.735 32.68C210.155 33.8 208.755 34.36 207.535 34.36C206.335 34.36 205.405 33.92 204.745 33.04C204.085 32.16 203.755 30.9 203.755 29.26C203.755 27 204.335 25.01 205.495 23.29C206.655 21.57 208.185 20.71 210.085 20.71C211.125 20.71 212.185 21 213.265 21.58C213.425 21.22 213.555 20.96 213.655 20.8C215.095 20.8 216.685 21.15 218.425 21.85ZM209.395 28.9C209.395 29.9 209.465 30.53 209.605 30.79C209.745 31.05 210.005 31.18 210.385 31.18C210.765 31.18 211.135 31.03 211.495 30.73C211.575 28.41 211.955 25.98 212.635 23.44C212.335 23.26 211.985 23.17 211.585 23.17C211.205 23.17 210.855 23.39 210.535 23.83C210.235 24.27 210.005 24.82 209.845 25.48C209.545 26.74 209.395 27.88 209.395 28.9Z" fill="white"/>
<path d="M219.872 31.57C219.872 30.73 220.132 29.35 220.652 27.43C221.192 25.51 221.462 24.33 221.462 23.89C221.462 23.45 221.102 22.81 220.382 21.97L220.442 21.52C222.262 21.12 224.392 20.92 226.832 20.92C226.992 21.26 227.072 21.8 227.072 22.54C227.072 23.28 226.792 24.68 226.232 26.74C225.692 28.8 225.422 30.02 225.422 30.4C225.422 30.92 225.672 31.18 226.172 31.18C226.512 31.18 226.942 31.05 227.462 30.79C227.522 30.47 227.702 29.63 228.002 28.27C228.702 25.25 229.052 22.99 229.052 21.49C229.972 21.09 231.542 20.89 233.762 20.89H234.572C234.572 21.79 234.302 23.55 233.762 26.17C233.242 28.79 232.972 30.3 232.952 30.7C232.952 31.1 233.042 31.3 233.222 31.3L234.692 30.91L235.232 32.41C234.652 32.87 233.812 33.31 232.712 33.73C231.612 34.15 230.642 34.36 229.802 34.36C228.562 34.36 227.792 33.86 227.492 32.86C225.832 33.86 224.242 34.36 222.722 34.36C220.822 34.36 219.872 33.43 219.872 31.57Z" fill="white"/>
<path d="M78.66 10.12C78.04 10.12 77.5267 9.87 77.12 9.37C76.7133 8.86333 76.51 8.20333 76.51 7.39C76.51 6.57667 76.65 5.83667 76.93 5.17C77.21 4.49667 77.61 3.95 78.13 3.53C78.65 3.11 79.2033 2.9 79.79 2.9C80.3833 2.9 80.86 3.03333 81.22 3.3C81.5867 3.56667 81.77 3.88667 81.77 4.26C81.77 4.62667 81.66 4.94 81.44 5.2C81.2267 5.2 80.9867 5.15333 80.72 5.06C80.4533 4.96667 80.2533 4.85333 80.12 4.72L80.31 3.71C80.15 3.61 79.94 3.56 79.68 3.56C79.2733 3.56 78.9133 3.91 78.6 4.61C78.2867 5.30333 78.13 6.16 78.13 7.18C78.13 7.85333 78.24 8.34333 78.46 8.65C78.6867 8.95 78.96 9.1 79.28 9.1C79.8067 9.1 80.3133 8.85333 80.8 8.36L81.21 8.73C81.1367 8.83667 81.0033 8.98333 80.81 9.17C80.6167 9.35667 80.4267 9.51333 80.24 9.64C80.0533 9.76 79.8167 9.87 79.53 9.97C79.2433 10.07 78.9533 10.12 78.66 10.12Z" fill="white"/>
<path d="M82.8899 3.4C82.8899 3.18 82.8699 3.02333 82.8299 2.93C83.3499 2.75 83.8399 2.66 84.2999 2.66C84.3599 2.72 84.3899 2.87333 84.3899 3.12C84.3899 3.56 84.2033 4.57333 83.8299 6.16C84.3699 5.76667 84.8433 5.57 85.2499 5.57C85.5033 5.57 85.6933 5.65 85.8199 5.81C85.9533 5.97 86.0199 6.18333 86.0199 6.45C86.0199 6.71 85.9433 7.14 85.7899 7.74C85.6366 8.33333 85.5599 8.74 85.5599 8.96C85.5599 9.18 85.5866 9.29 85.6399 9.29C85.6933 9.29 85.8333 9.23 86.0599 9.11L86.1799 9.05L86.3599 9.4C86.2999 9.45333 86.2199 9.52 86.1199 9.6C86.0199 9.68 85.8366 9.78667 85.5699 9.92C85.3033 10.0533 85.0566 10.12 84.8299 10.12C84.6099 10.12 84.4333 10.05 84.2999 9.91C84.1666 9.76333 84.0999 9.57 84.0999 9.33C84.0999 9.08333 84.1733 8.64 84.3199 8C84.4733 7.35333 84.5499 6.94667 84.5499 6.78C84.5499 6.60667 84.4799 6.52 84.3399 6.52C84.1666 6.52 83.9499 6.59333 83.6899 6.74C83.3233 8.35333 83.1399 9.4 83.1399 9.88C82.8599 9.98667 82.3833 10.04 81.7099 10.04C81.7033 9.92667 81.6999 9.82667 81.6999 9.74C81.6999 9.45333 81.8966 8.47333 82.2899 6.8C82.6899 5.12667 82.8899 3.99333 82.8899 3.4Z" fill="white"/>
<path d="M88.0809 10.12C87.6209 10.12 87.2609 9.96 87.0009 9.64C86.7409 9.31333 86.6109 8.86 86.6109 8.28C86.6109 7.54 86.8075 6.90333 87.2009 6.37C87.6009 5.83667 88.1509 5.57 88.8509 5.57L89.2109 5.59C89.3242 5.53 89.4509 5.5 89.5909 5.5C90.1175 5.5 90.3809 5.99667 90.3809 6.99C90.6542 6.97667 90.9309 6.94 91.2109 6.88L91.3709 6.84L91.4309 7.23C91.2109 7.32333 90.9142 7.40667 90.5409 7.48L90.3409 7.52C90.2142 8.22 89.9575 8.83 89.5709 9.35C89.1842 9.86333 88.6875 10.12 88.0809 10.12ZM88.6209 9.26C88.9009 9.26 89.1509 9.08 89.3709 8.72C89.5975 8.36 89.7542 7.98 89.8409 7.58C89.1275 7.58 88.7709 7.31333 88.7709 6.78C88.7709 6.56667 88.8142 6.36667 88.9009 6.18L88.9509 6.08C88.9242 6.06667 88.8909 6.06 88.8509 6.06C88.8109 6.06 88.7809 6.06667 88.7609 6.08C88.5942 6.18667 88.4375 6.43667 88.2909 6.83C88.1442 7.22333 88.0709 7.67333 88.0709 8.18C88.0709 8.9 88.2542 9.26 88.6209 9.26Z" fill="white"/>
<path d="M93.1703 6.07C92.9036 6.07 92.6903 6.29333 92.5303 6.74C92.3703 7.18 92.2903 7.65333 92.2903 8.16C92.2903 8.96 92.537 9.36 93.0303 9.36C93.1903 9.36 93.3603 9.32333 93.5403 9.25C93.7203 9.17 93.8636 9.09333 93.9703 9.02L94.1203 8.9L94.3503 9.21C94.297 9.28333 94.1903 9.38 94.0303 9.5C93.8703 9.62 93.7203 9.72 93.5803 9.8C93.4403 9.88 93.2603 9.95333 93.0403 10.02C92.8203 10.0867 92.6036 10.12 92.3903 10.12C91.8703 10.12 91.4803 9.95 91.2203 9.61C90.9603 9.27 90.8303 8.81333 90.8303 8.24C90.8303 7.44667 91.047 6.80333 91.4803 6.31C91.9203 5.81667 92.4836 5.57 93.1703 5.57C93.617 5.57 93.9703 5.67333 94.2303 5.88C94.497 6.08 94.6303 6.33 94.6303 6.63C94.6303 6.92333 94.537 7.17667 94.3503 7.39C94.1836 7.39 93.9903 7.35333 93.7703 7.28C93.5503 7.20667 93.3836 7.11667 93.2703 7.01L93.4203 6.13C93.3603 6.09 93.277 6.07 93.1703 6.07Z" fill="white"/>
<path d="M96.2449 10.12C95.7849 10.12 95.4249 9.96 95.1649 9.64C94.9049 9.31333 94.7749 8.86 94.7749 8.28C94.7749 7.54 94.9716 6.90333 95.3649 6.37C95.7649 5.83667 96.3149 5.57 97.0149 5.57L97.3749 5.59C97.4883 5.53 97.6149 5.5 97.7549 5.5C98.2816 5.5 98.5449 5.99667 98.5449 6.99C98.8183 6.97667 99.0949 6.94 99.3749 6.88L99.5349 6.84L99.5949 7.23C99.3749 7.32333 99.0783 7.40667 98.7049 7.48L98.5049 7.52C98.3783 8.22 98.1216 8.83 97.7349 9.35C97.3483 9.86333 96.8516 10.12 96.2449 10.12ZM96.7849 9.26C97.0649 9.26 97.3149 9.08 97.5349 8.72C97.7616 8.36 97.9183 7.98 98.0049 7.58C97.2916 7.58 96.9349 7.31333 96.9349 6.78C96.9349 6.56667 96.9783 6.36667 97.0649 6.18L97.1149 6.08C97.0883 6.06667 97.0549 6.06 97.0149 6.06C96.9749 6.06 96.9449 6.06667 96.9249 6.08C96.7583 6.18667 96.6016 6.43667 96.4549 6.83C96.3083 7.22333 96.2349 7.67333 96.2349 8.18C96.2349 8.9 96.4183 9.26 96.7849 9.26Z" fill="white"/>
<path d="M99.7067 10.12C99.4801 10.12 99.2901 10.0433 99.1367 9.89C98.9901 9.73667 98.9167 9.52333 98.9167 9.25C98.9167 8.97 99.08 8.08667 99.4067 6.6C99.74 5.10667 99.9067 4.03 99.9067 3.37L99.8467 2.93C100.367 2.75 100.853 2.66 101.307 2.66C101.373 2.75333 101.407 2.91667 101.407 3.15C101.407 3.68333 101.237 4.71667 100.897 6.25C100.563 7.77667 100.397 8.66667 100.397 8.92C100.397 9.16667 100.427 9.29 100.487 9.29L101.187 9.04L101.367 9.39C101.14 9.57 100.863 9.73667 100.537 9.89C100.217 10.0433 99.9401 10.12 99.7067 10.12Z" fill="white"/>
<path d="M104.573 5.86C104.586 5.84667 104.623 5.76 104.683 5.6C104.996 5.6 105.416 5.69333 105.943 5.88C105.776 6.43333 105.643 7.01333 105.543 7.62C105.443 8.22 105.393 8.65 105.393 8.91C105.393 9.16333 105.42 9.29 105.473 9.29C105.513 9.29 105.66 9.22667 105.913 9.1L106.033 9.04L106.213 9.39C106.153 9.44333 106.073 9.51 105.973 9.59C105.88 9.67 105.7 9.78 105.433 9.92C105.166 10.0533 104.926 10.12 104.713 10.12C104.3 10.12 104.06 9.93333 103.993 9.56C103.566 9.93333 103.18 10.12 102.833 10.12C102.493 10.12 102.203 9.98667 101.963 9.72C101.73 9.45333 101.613 9.03333 101.613 8.46C101.613 7.56667 101.796 6.86333 102.163 6.35C102.53 5.83 102.973 5.57 103.493 5.57C103.866 5.57 104.226 5.66667 104.573 5.86ZM103.433 9.27C103.593 9.27 103.773 9.20667 103.973 9.08C104.02 8.14 104.176 7.21 104.443 6.29C104.243 6.20333 104.073 6.16 103.933 6.16C103.693 6.16 103.486 6.39667 103.313 6.87C103.146 7.33667 103.063 7.85333 103.063 8.42C103.063 8.98667 103.186 9.27 103.433 9.27Z" fill="white"/>
<path d="M109.528 5.69C109.514 5.85667 109.458 6.05 109.358 6.27C109.104 6.24333 108.864 6.23 108.638 6.23H108.458C108.151 7.71667 107.998 8.64333 107.998 9.01C107.998 9.20333 108.038 9.3 108.118 9.3C108.204 9.3 108.428 9.21667 108.788 9.05L108.968 9.38C108.374 9.87333 107.824 10.12 107.318 10.12C107.084 10.12 106.891 10.0467 106.738 9.9C106.591 9.75333 106.518 9.56 106.518 9.32C106.518 9.07333 106.544 8.79667 106.598 8.49C106.658 8.18333 106.738 7.81 106.838 7.37C106.938 6.92333 107.011 6.56333 107.058 6.29C106.811 6.31 106.628 6.33 106.508 6.35C106.494 6.27 106.488 6.16333 106.488 6.03C106.488 5.89 106.498 5.77667 106.518 5.69H107.148C107.201 5.33 107.228 4.99 107.228 4.67L107.218 4.36V4.33C107.738 4.15 108.228 4.06 108.688 4.06C108.714 4.19333 108.728 4.36 108.728 4.56C108.728 4.76 108.671 5.13667 108.558 5.69H109.528Z" fill="white"/>
<path d="M109.307 8.27C109.307 7.43667 109.557 6.78 110.057 6.3C110.564 5.81333 111.137 5.57 111.777 5.57C112.17 5.57 112.494 5.66667 112.747 5.86C113 6.05333 113.127 6.31333 113.127 6.64C113.127 6.96 113.044 7.23 112.877 7.45C112.717 7.67 112.52 7.84 112.287 7.96C111.814 8.19333 111.38 8.34 110.987 8.4L110.747 8.43C110.794 9.05667 111.05 9.37 111.517 9.37C111.677 9.37 111.847 9.33 112.027 9.25C112.207 9.17 112.347 9.09 112.447 9.01L112.597 8.89L112.837 9.21C112.784 9.28333 112.677 9.38 112.517 9.5C112.357 9.62 112.207 9.72 112.067 9.8C111.68 10.0133 111.257 10.12 110.797 10.12C110.337 10.12 109.974 9.95667 109.707 9.63C109.44 9.30333 109.307 8.85 109.307 8.27ZM110.737 7.94C111.077 7.88 111.347 7.73667 111.547 7.51C111.747 7.28333 111.847 6.99 111.847 6.63C111.847 6.27 111.74 6.09 111.527 6.09C111.274 6.09 111.077 6.30667 110.937 6.74C110.804 7.16667 110.737 7.56667 110.737 7.94Z" fill="white"/>
<path d="M113.541 10.03H113.471C113.458 9.97667 113.451 9.85667 113.451 9.67C113.451 9.47667 113.541 8.96333 113.721 8.13C113.901 7.29667 113.991 6.82 113.991 6.7C113.991 6.49333 113.898 6.26667 113.711 6.02L113.621 5.9L113.631 5.77C113.991 5.67 114.568 5.62 115.361 5.62C115.441 5.79333 115.481 6.03667 115.481 6.35C115.554 6.23 115.708 6.07 115.941 5.87C116.174 5.67 116.414 5.57 116.661 5.57C117.021 5.57 117.201 5.88333 117.201 6.51C117.168 6.55 117.121 6.60333 117.061 6.67C117.008 6.73 116.894 6.81667 116.721 6.93C116.554 7.04333 116.391 7.11333 116.231 7.14C116.224 7.14 116.168 7.05 116.061 6.87C115.954 6.69 115.874 6.6 115.821 6.6C115.654 6.66 115.508 6.76 115.381 6.9C115.074 8.28 114.921 9.17333 114.921 9.58C114.921 9.72667 114.924 9.83 114.931 9.89C114.698 9.98333 114.234 10.03 113.541 10.03Z" fill="white"/>
<path d="M119.054 6.19C119.054 6.47 118.964 6.95333 118.784 7.64C118.604 8.32 118.514 8.76667 118.514 8.98C118.514 9.18667 118.544 9.29 118.604 9.29C118.644 9.29 118.797 9.22667 119.064 9.1L119.184 9.04L119.354 9.39C119.294 9.44333 119.214 9.51 119.114 9.59C119.014 9.67 118.827 9.78 118.554 9.92C118.28 10.0533 118.027 10.12 117.794 10.12C117.56 10.12 117.377 10.05 117.244 9.91C117.11 9.76333 117.044 9.57 117.044 9.33C117.044 9.08333 117.127 8.65 117.294 8.03C117.46 7.40333 117.544 6.99667 117.544 6.81C117.544 6.53 117.457 6.26667 117.284 6.02L117.194 5.9L117.204 5.77C117.557 5.67 118.13 5.62 118.924 5.62C119.01 5.72 119.054 5.91 119.054 6.19ZM117.914 4.53C117.78 4.39667 117.714 4.22 117.714 4C117.714 3.78 117.804 3.58667 117.984 3.42C118.17 3.25333 118.384 3.17 118.624 3.17C118.864 3.17 119.05 3.23667 119.184 3.37C119.317 3.50333 119.384 3.68 119.384 3.9C119.384 4.11333 119.287 4.30333 119.094 4.47C118.907 4.63667 118.697 4.72 118.464 4.72C118.23 4.72 118.047 4.65667 117.914 4.53Z" fill="white"/>
<path d="M122.688 5.86C122.702 5.84667 122.738 5.76 122.798 5.6C123.112 5.6 123.532 5.69333 124.058 5.88C123.892 6.43333 123.758 7.01333 123.658 7.62C123.558 8.22 123.508 8.65 123.508 8.91C123.508 9.16333 123.535 9.29 123.588 9.29C123.628 9.29 123.775 9.22667 124.028 9.1L124.148 9.04L124.328 9.39C124.268 9.44333 124.188 9.51 124.088 9.59C123.995 9.67 123.815 9.78 123.548 9.92C123.282 10.0533 123.042 10.12 122.828 10.12C122.415 10.12 122.175 9.93333 122.108 9.56C121.682 9.93333 121.295 10.12 120.948 10.12C120.608 10.12 120.318 9.98667 120.078 9.72C119.845 9.45333 119.728 9.03333 119.728 8.46C119.728 7.56667 119.912 6.86333 120.278 6.35C120.645 5.83 121.088 5.57 121.608 5.57C121.982 5.57 122.342 5.66667 122.688 5.86ZM121.548 9.27C121.708 9.27 121.888 9.20667 122.088 9.08C122.135 8.14 122.292 7.21 122.558 6.29C122.358 6.20333 122.188 6.16 122.048 6.16C121.808 6.16 121.602 6.39667 121.428 6.87C121.262 7.33667 121.178 7.85333 121.178 8.42C121.178 8.98667 121.302 9.27 121.548 9.27Z" fill="white"/>
</svg>
