<svg width="800" height="160" viewBox="0 0 800 160" fill="none" xmlns="http://www.w3.org/2000/svg">
<path d="M142.585 0.860215L141.229 1.69779V11.3186L141.79 11.6582C142.187 11.9072 142.772 11.9977 143.73 11.9525L145.086 11.8845L145.484 8.1494C145.694 6.08941 145.881 3.78042 145.881 3.03339C145.905 1.67516 145.881 1.60724 144.97 0.814941C144.455 0.362196 144.011 0 143.964 0C143.941 0 143.31 0.384833 142.585 0.860215Z" fill="#C9673C"/>
<path d="M148.055 11.2734C147.775 12.36 147.471 13.854 147.401 14.601C147.26 15.8687 147.307 16.0272 147.892 16.7063C148.546 17.476 149.598 18.1098 150.183 18.1098C150.463 18.1098 153.643 13.1296 153.62 12.6995C153.596 12.5184 148.99 9.28129 148.733 9.28129C148.64 9.28129 148.312 10.1641 148.055 11.2734Z" fill="#C9673C"/>
<path d="M127.084 11.228C125.214 11.6128 121.8 13.1069 119.696 14.5104C118.083 15.5517 113.968 18.9699 112.706 20.2829L111.888 21.1205L112.706 20.6677C113.15 20.3961 117.008 18.2455 121.239 15.846C125.494 13.4464 129.165 11.3412 129.422 11.1601C129.866 10.8884 129.866 10.8658 129.305 10.8884C128.978 10.8884 127.996 11.0469 127.084 11.228Z" fill="#C9673C"/>
<path d="M169.634 11.0243C169.821 11.2054 183.942 19.2189 186.584 20.6451C188.314 21.5732 181.979 16.0724 179.337 14.3293C177.677 13.2427 174.614 11.8392 173.118 11.4544C171.201 11.0016 169.354 10.7526 169.634 11.0243Z" fill="#C9673C"/>
<path d="M128.651 13.4694C124.933 15.3936 117.101 20.736 107.562 27.8667C104.547 30.1078 98.6083 34.2051 94.3532 36.9442C69.3375 53.1525 65.1994 56.9782 56.362 72.213C52.107 79.5475 46.2622 90.3907 45.2335 92.8582C42.2644 99.9663 40.2538 109.587 39.1316 122.015C38.8042 125.795 38.7107 128.874 38.7341 138.653C38.7575 145.241 38.851 151.104 38.9679 151.647C39.1783 152.62 39.2485 152.462 41.2357 145.648C43.5035 137.861 44.0879 135.326 45.1166 128.58C45.4907 126.022 46.0284 123.011 46.309 121.902C47.7585 115.812 51.7563 103.701 54.6086 96.7291C57.3673 90.0285 60.6872 84.1655 66.3683 76.0614C70.3194 70.4247 72.0027 68.2515 74.7147 65.3087C79.2269 60.4417 88.789 51.5226 92.2491 48.9872C92.7635 48.6024 96.6678 46.0218 100.899 43.2374C105.154 40.4756 109.667 37.4196 110.952 36.4688C113.992 34.2278 117.218 31.0812 121.122 26.599C125.19 21.9131 127.154 19.9437 129.048 18.5402C131.129 17.0235 134.028 15.5747 137.371 14.3975C137.745 14.2617 137.581 14.1259 136.436 13.6732C132.625 12.1565 131.246 12.1338 128.651 13.4694Z" fill="#C9673C"/>
<path d="M165.193 12.8807C164.421 13.1071 163.276 13.4919 162.621 13.7636C161.639 14.1484 161.522 14.239 161.92 14.3974C165.099 15.5519 166.899 16.4121 169.12 17.8156C171.505 19.355 172.978 20.7585 177.42 25.8066C184.667 34.0239 186.514 35.5406 199.654 44.1201C203.698 46.7687 207.649 49.4398 208.421 50.0737C213.19 53.8767 223.43 63.8371 227.148 68.2287C228.831 70.2435 233.904 77.3515 236.429 81.2678C241.526 89.1455 244.097 94.5106 247.698 104.811C251.275 114.929 253.098 121.675 254.151 128.466C255.226 135.552 255.834 138.2 258.078 145.784C259.995 152.349 260.112 152.643 260.276 151.67C260.369 151.104 260.51 146.78 260.603 142.049C261.024 119.253 258.359 101.528 252.888 90.4359C250.083 84.7539 242.461 71.1942 239.211 66.1461C232.735 56.0725 227.101 51.2735 204.82 36.8988C200.893 34.3635 195.071 30.334 191.845 27.9571C181.792 20.4642 173.258 14.6917 170.102 13.2203C168.255 12.3374 167.297 12.2695 165.193 12.8807Z" fill="#C9673C"/>
<path d="M100.643 13.1296C79.0875 14.5558 57.6721 25.1727 38.1271 44.1426C35.7424 46.4516 32.3758 49.9604 30.6457 51.9299C27.6532 55.3028 21.9954 62.3883 21.9954 62.7278C21.9954 62.8184 22.8137 62.6146 23.819 62.2524C24.8009 61.9129 29.1962 60.532 33.5681 59.1964C54.586 52.8127 55.4978 52.4958 57.9526 50.4811C59.3554 49.3492 62.909 45.5914 62.909 45.2292C62.909 44.8897 60.2672 44.7991 57.8591 45.0255C53.1132 45.5235 43.6913 47.6061 37.1451 49.6435C34.9475 50.3226 35.0176 50.0057 37.2854 49.0097C40.465 47.5835 45.585 46.2026 59.3554 43.0108C67.1874 41.1772 69.2682 40.6339 70.3436 40.0453C71.9568 39.1625 75.7676 36.7176 78.877 34.5671C81.7761 32.575 81.7059 32.4845 76.5859 32.5071C70.9281 32.5298 64.4754 33.5032 56.0122 35.6537C50.2141 37.1251 50.7518 37.0346 51.5701 36.3554C54.7731 33.6843 67.468 31.6469 82.5476 31.3979C87.1299 31.3073 87.5507 31.2168 90.2627 29.4285C91.6888 28.4777 95.2659 25.3764 95.1022 25.1953C95.0555 25.15 93.2319 25.3764 91.0576 25.6707C81.1214 27.0742 71.8633 28.0023 70.554 27.708C69.9929 27.5948 69.9228 27.5269 70.18 27.2779C71.3022 26.2366 77.7548 25.1047 90.1926 23.7691C94.9619 23.2711 99.3806 22.7052 100.012 22.5241C101.882 21.9808 105.436 19.5586 110.579 15.3028L112.777 13.4692L112.029 13.3334C110.673 13.0617 103.565 12.9486 100.643 13.1296Z" fill="#C9673C"/>
<path d="M189.437 13.107C187.987 13.2202 186.748 13.3334 186.678 13.4013C186.421 13.6729 193.06 18.9248 196.147 20.9168C197.245 21.6186 198.671 22.343 199.303 22.5241C199.957 22.7052 204.329 23.2711 209.028 23.7691C221.209 25.0594 226.259 25.897 228.55 27.0062C229.462 27.459 229.485 27.459 228.901 27.6627C227.849 28.0476 218.123 27.0968 207.532 25.5801C205.755 25.3311 204.236 25.15 204.189 25.1953C204.025 25.3764 207.579 28.4777 209.028 29.4284C211.74 31.2168 212.161 31.3073 216.744 31.3979C231.8 31.6469 244.518 33.6842 247.721 36.3554C248.539 37.0345 249.077 37.1251 243.279 35.6537C234.769 33.5031 228.316 32.5297 222.705 32.5071C217.679 32.4845 217.539 32.5976 220.04 34.3407C224.202 37.193 225.254 37.8948 227.615 39.2756C230.046 40.7018 230.093 40.7244 235.611 41.9921C253.987 46.2705 259.644 47.7872 262.731 49.3265C264.063 49.9604 264.203 50.3226 262.988 49.8925C257.961 48.1721 246.155 45.5235 241.432 45.0255C239.118 44.7991 236.382 44.8897 236.382 45.2066C236.382 45.5235 239.188 48.6248 240.684 49.9378C243.489 52.4279 243.934 52.5863 263.432 58.4946C268.973 60.1924 274.373 61.8676 275.402 62.2524C276.454 62.6146 277.296 62.8636 277.296 62.7957C277.296 62.5467 273.836 58.0419 271.615 55.3933C258.288 39.4567 242.157 26.8931 226.095 19.9434C214.102 14.7595 201.173 12.36 189.437 13.107Z" fill="#C9673C"/>
<path d="M136.67 15.7105C135.22 16.3669 132.345 18.4496 129.96 20.6001C128.604 21.7999 127.482 23.1581 125.588 25.8972C123.461 28.9532 122.619 29.9719 120.725 31.6471C116.33 35.5859 107.82 41.9244 98.6554 48.0817C91.6182 52.8129 90.0986 54.0126 85.6799 58.2684C81.2612 62.5469 78.6194 65.5803 73.1019 72.7336C63.0956 85.7048 59.0978 91.9074 55.474 100.193C52.4814 106.938 50.8215 112.756 48.1563 125.41C46.1691 134.941 44.93 139.627 42.6856 146.124C41.7504 148.863 40.8854 151.307 40.7918 151.556C40.6983 151.805 41.5867 150.9 42.8024 149.519C47.5017 144.267 56.5728 134.85 67.1168 124.324C74.2475 117.193 76.4451 114.884 77.9414 112.892C78.5493 112.077 80.3261 110.244 81.9159 108.84C88.3451 103.09 90.496 100.849 92.9508 97.2271C95.1017 94.0353 97.276 91.1151 104.337 81.8338C112.075 71.647 113.969 68.4552 124.396 47.7648C131.48 33.7071 132.181 32.4394 136.062 26.8027C140.037 21.0528 141.018 18.9702 140.644 17.0687C140.294 15.2351 138.821 14.7144 136.67 15.7105Z" fill="#C9673C"/>
<path d="M159.534 15.5065C158.856 15.9819 158.459 17.2496 158.623 18.4041C158.903 20.1698 159.838 21.8902 163.135 26.7572C167.366 32.9598 167.834 33.7974 174.357 46.7459C185.836 69.5416 186.912 71.3299 197.713 85.4782C200.658 89.3265 204.306 94.3067 205.849 96.5478C208.257 100.079 209.028 101.007 211.693 103.565C213.377 105.195 215.925 107.572 217.375 108.84C218.894 110.198 220.718 112.1 221.7 113.367C222.635 114.567 225.651 117.804 228.41 120.543C239.819 131.907 252.373 144.856 256.465 149.564C257.563 150.809 258.499 151.828 258.545 151.805C258.569 151.76 258.171 150.628 257.657 149.27C255.226 142.954 253.238 135.71 250.9 124.482C248.937 115.156 248.048 111.669 246.178 106.327C243.91 99.7396 240.847 93.4917 236.873 87.3797C233.763 82.5806 225.043 71.0356 220.04 65.082C217.001 61.4601 210.852 55.4386 207.859 53.1522C206.644 52.2014 203.534 50.0283 200.962 48.3305C195.609 44.7538 185.672 37.5778 182.353 34.884C177.747 31.1488 176.391 29.768 173.889 26.1686C171.341 22.4561 169.05 20.0792 165.683 17.6118C162.597 15.3707 160.703 14.7142 159.534 15.5065Z" fill="#C9673C"/>
<path d="M142.819 19.0152C140.06 25.014 136.997 30.9223 133.818 36.4232C128.698 45.2291 127.903 46.7231 123.461 55.7554C116.961 69.0208 116.354 70.0621 108.849 81.0638C95.4059 100.758 88.1817 109.134 69.2913 126.836C55.708 139.558 45.9588 149.157 44.2755 151.443C42.4052 153.978 39.2724 158.687 39.436 158.687C39.5062 158.687 40.2543 158.211 41.096 157.623C42.8026 156.446 42.7559 156.423 41.8441 158.777C41.6103 159.411 41.4233 159.932 41.47 159.955C41.4934 159.977 45.8419 158.076 51.1023 155.699C64.0777 149.881 68.7536 147.844 75.7673 144.923C79.0638 143.565 83.3422 141.664 85.2827 140.713C89.678 138.585 97.4399 134.307 100.993 132.043C106.09 128.806 117.008 120.566 118.715 118.664C122.479 114.476 130.054 103.927 132.088 100.079C132.836 98.6303 134.122 95.8685 134.917 93.9444C136.81 89.3943 140.2 79.5245 140.762 76.8759C142.258 69.9716 144.035 54.6462 144.035 48.5567C144.035 46.9269 144.152 44.8895 144.268 44.0293C144.619 41.675 145.765 37.3287 146.84 34.1595L147.822 31.3524L147.635 28.2059C147.495 25.4215 147.448 25.1046 147.144 25.4894C145.998 27.0061 143.333 38.0983 141.229 50.2545C139.546 59.8754 135.712 76.0383 133.631 82.3088C131.246 89.4169 122.853 102.456 114.974 111.262C113.759 112.62 110.462 115.857 107.633 118.415C98.4685 126.814 97.9308 127.198 83.2487 135.869C75.2062 140.6 70.0394 143.361 57.9991 149.36C52.0608 152.303 43.504 156.265 43.3637 156.129C43.2001 155.97 52.2478 150.017 54.726 148.681C56.1989 147.866 61.8567 144.901 67.304 142.071C79.2742 135.869 80.7705 135.008 85.7736 131.567C93.5823 126.18 108.662 115.201 110.462 113.593C114.67 109.836 118.458 103.859 126.266 88.7605C130.592 80.362 131.69 77.9399 133.42 73.0049C135.875 66.0779 137.208 59.8527 138.657 48.7831C139.172 44.9121 139.756 40.9506 139.967 39.9546C140.808 35.9931 142.538 30.9223 144.128 27.889L144.689 26.825L144.011 22.8635C143.637 20.6903 143.31 18.7435 143.263 18.5624C143.216 18.3587 143.029 18.5398 142.819 19.0152Z" fill="#C9673C"/>
<path d="M155.327 22.5468L154.626 26.7573L155.654 28.9531C156.964 31.7828 158.6 36.6271 159.208 39.5247C159.488 40.7697 159.956 43.8937 160.283 46.429C162.177 61.1432 163.86 68.4777 167.437 77.3062C168.63 80.2491 176.812 96.1857 179.665 101.143C183.616 107.98 187.099 112.552 190.022 114.703C193.412 117.238 209.613 128.874 212.746 131.047C218.498 135.054 219.877 135.823 234.512 143.407C245.22 148.953 246.95 149.926 251.626 153.096C254.034 154.748 255.951 156.106 255.928 156.152C255.787 156.265 246.716 152.077 241.152 149.293C228.013 142.773 223.384 140.26 212.209 133.605C201.571 127.289 200.168 126.248 191.635 118.438C184.481 111.851 181.138 108.048 175.76 100.396C170.383 92.7222 166.876 86.2706 165.31 81.2677C162.972 73.7522 159.699 59.7171 157.969 49.802C155.865 37.8269 153.083 26.3272 152.03 25.3085C151.89 25.1727 151.75 26.1687 151.633 28.2061L151.446 31.3074L152.638 34.952C154.719 41.2904 155.257 44.0974 155.257 48.7833C155.257 54.5558 156.823 68.4098 158.319 76.0612C158.81 78.5513 162.13 88.489 164.001 93.1523C166.058 98.223 168.583 102.796 171.879 107.414C179.267 117.736 180.506 119.117 187.45 124.324C194.37 129.53 197.035 131.364 201.197 133.831C208.889 138.336 214.734 141.256 223.384 144.878C230.398 147.799 236.757 150.583 247.488 155.405C251.86 157.351 255.974 159.208 256.652 159.479L257.845 160L257.284 158.393C256.98 157.51 256.723 156.763 256.723 156.695C256.723 156.65 257.401 157.08 258.219 157.646C259.061 158.212 259.785 158.687 259.855 158.687C260.066 158.687 256.512 153.503 254.502 150.877C252.959 148.862 250.2 146.101 240.217 136.616C217.095 114.612 214.009 111.534 208.187 104.788C201.828 97.3854 192.64 84.7765 185.182 73.2315C182.47 69.0436 180.717 65.7839 175.597 55.3481C171.131 46.2479 170.734 45.5462 165.474 36.446C163.416 32.892 160.47 27.3911 158.951 24.2219C157.408 21.0527 156.145 18.4268 156.098 18.4042C156.052 18.3589 155.701 20.2151 155.327 22.5468Z" fill="#C9673C"/>
<path d="M82.0795 40.136C74.0371 44.0296 70.6003 46.1348 66.5324 49.6662C62.9787 52.7449 53.8608 62.5242 50.541 66.78C46.3093 72.2355 42.7089 82.6939 39.7865 98.0193C38.9683 102.275 38.8748 103.384 39.5528 101.075C41.6803 93.7635 45.6781 84.4144 50.1669 76.2876C52.2477 72.5072 53.5803 70.4246 56.2221 66.8026C62.5111 58.2005 72.9149 48.2627 84.2304 40.0454C87.2463 37.8722 87.6204 37.5779 87.4567 37.5779C87.3866 37.5779 84.9786 38.7324 82.0795 40.136Z" fill="#C9673C"/>
<path d="M211.834 37.6912C211.834 37.7364 212.535 38.2571 213.424 38.8457C220.578 43.8032 230.841 52.6996 236.359 58.7438C242.671 65.6481 246.388 71.0132 250.854 79.6606C254.782 87.2214 257.751 94.3521 259.364 99.9888C259.761 101.415 260.135 102.479 260.182 102.366C260.299 102.004 259.13 95.8462 258.008 90.8886C255.647 80.634 252.841 72.8468 249.825 68.342C247.207 64.4257 237.154 53.4919 232.291 49.3041C229.532 46.9045 225.978 44.5729 221.723 42.3544C218.661 40.7698 211.834 37.5327 211.834 37.6912Z" fill="#C9673C"/>
<path d="M46.8938 56.6838C37.5655 58.7438 29.4763 61.3924 23.5847 64.3126C20.5688 65.8293 19.7037 66.4631 18.1841 68.2967C9.69745 78.5967 3.82927 91.5904 1.30431 105.603C0.322384 111.036 -0.285475 120.566 0.13535 123.713L0.322384 125.071L0.836727 123.599C2.80058 118.008 9.08959 110.47 14.8643 106.735C17.3658 105.128 22.3924 102.524 27.1617 100.396C31.5336 98.4269 33.8949 96.8876 34.9002 95.303C35.2509 94.737 35.9289 93.0166 36.3731 91.4546C37.6122 87.2894 41.2126 73.5486 41.0957 73.4354C41.049 73.3901 40.4879 74.1824 39.88 75.2011C38.6877 77.2158 30.1075 90.5944 29.523 91.3414C29.1256 91.8621 29.1489 91.7715 30.3647 88.9645C30.879 87.7874 31.6739 85.75 32.1649 84.4371C32.6558 83.1241 33.1 81.9244 33.1468 81.7885C33.2169 81.6301 31.2297 83.4637 28.7281 85.8632C23.5379 90.8887 12.3861 101.008 12.2224 100.849C12.1523 100.781 12.4328 100.079 12.8536 99.2871C14.2798 96.5706 18.7218 91.2735 25.2212 84.5503C27.0214 82.6714 28.4709 81.132 28.4242 81.0868C28.4008 81.0641 27.0682 81.5622 25.4784 82.196C21.6442 83.7353 20.148 84.256 20.6857 83.9164C20.9195 83.7806 22.1819 82.9883 23.4912 82.196C28.7047 78.9815 44.2052 68.1383 43.5505 68.1383C43.4103 68.1383 39.5761 68.9079 35.0405 69.8587C30.5049 70.7868 26.133 71.6923 25.3148 71.8508C24.0055 72.1224 23.8886 72.1224 24.1458 71.8055C24.8004 71.0585 26.7175 70.3794 39.9969 66.2367C46.9873 64.0409 48.5069 63.2034 50.3539 60.4869C51.3358 59.0381 52.3879 56.7291 52.3879 56.0274C52.3879 55.5293 51.8502 55.5973 46.8938 56.6838ZM17.1087 85.7048C16.4307 86.0217 15.7527 86.2254 15.6124 86.1801C15.3786 86.1122 17.7165 85.1388 18.1373 85.1388C18.2776 85.1615 17.81 85.4105 17.1087 85.7048ZM27.5124 94.7823C27.3254 95.1445 26.9981 95.6199 26.7876 95.8689C26.4136 96.299 26.3902 96.299 26.7175 95.7557C26.9045 95.4388 27.1851 94.9634 27.3487 94.6691C27.489 94.3975 27.6761 94.1711 27.7462 94.1711C27.793 94.1711 27.6994 94.4427 27.5124 94.7823Z" fill="#C9673C"/>
<path d="M246.903 55.9821C246.903 56.5707 247.791 58.8344 248.446 59.8983C249.428 61.5282 251.368 63.2713 253.028 64.0409C254.595 64.7427 257.985 65.8746 265.373 68.1383C271.124 69.904 273.976 70.9679 274.865 71.647L275.542 72.1677L274.023 71.8734C273.181 71.6923 268.786 70.7868 264.25 69.8587C259.715 68.9079 255.904 68.1383 255.764 68.1383C255.039 68.1383 270.913 79.2758 276.197 82.445C277.436 83.2147 278.418 83.8712 278.395 83.9164C278.348 83.9617 276.641 83.3279 274.607 82.5129C272.573 81.698 270.89 81.0641 270.843 81.0868C270.82 81.132 272.106 82.5355 273.742 84.2107C280.359 91.0698 285.222 96.8649 286.531 99.4456C286.881 100.17 287.139 100.804 287.068 100.849C286.905 101.008 275.987 91.1151 270.703 86.0217C268.155 83.5542 266.074 81.6074 266.074 81.6527C266.074 81.8791 269.23 89.8927 269.628 90.617C269.885 91.1151 270.048 91.5452 270.002 91.5904C269.908 91.6584 262.894 80.883 259.972 76.1745C259.06 74.6804 258.219 73.3901 258.148 73.2769C257.938 73.0732 261.959 88.3986 263.011 91.8621C263.455 93.2656 264.087 94.8502 264.461 95.4161C265.443 96.9102 267.804 98.4495 272.129 100.396C276.548 102.388 281.832 105.105 284.076 106.508C286.203 107.844 289.289 110.515 291.557 113.005C294.9 116.65 296.934 119.706 298.244 123.124L298.992 125.048L299.156 123.464C299.389 121.358 299.132 114.228 298.688 110.583C296.888 95.8462 291.838 82.8525 283.445 71.3754C279.821 66.4179 278.956 65.7161 273.088 63.1354C267.383 60.6227 260.58 58.5175 252.28 56.6838C247.277 55.5973 246.903 55.552 246.903 55.9821ZM283 85.818C283.538 86.0443 283.795 86.2481 283.608 86.2481C283.421 86.2481 282.743 85.9991 282.089 85.6821C280.779 85.0483 281.504 85.1615 283 85.818ZM272.643 95.8689L272.877 96.3216L272.503 95.8689C272.293 95.6199 272.012 95.2124 271.895 94.9634L271.662 94.5106L272.036 94.9634C272.246 95.2124 272.527 95.6199 272.643 95.8689Z" fill="#C9673C"/>
<path d="M137.722 94.6915C129.679 108.659 123.975 117.283 120.772 120.317C118.13 122.83 110.018 129.032 104.29 132.903C100.689 135.348 91.3376 140.577 87.3397 142.388C84.955 143.475 80.3493 145.24 70.2729 148.976C67.1868 150.107 63.8202 151.443 62.7915 151.941C60.7809 152.892 58.63 154.16 58.7703 154.295C58.8171 154.341 60.1029 154.137 61.646 153.843C74.4578 151.307 85.2823 148.093 92.1558 144.742C98.2812 141.8 106.885 136.593 111.701 132.948C117.499 128.579 121.029 125.139 124.232 120.77C129.305 113.888 136.272 100.985 139.358 92.79C139.733 91.7713 140.036 90.9111 139.99 90.8658C139.966 90.8432 138.938 92.5636 137.722 94.6915Z" fill="#C9673C"/>
<path d="M159.839 92.5863C161.662 97.5439 166.104 106.576 169.634 112.507C172.206 116.853 175.456 121.539 177.747 124.165C183.288 130.549 194.042 138.178 205.802 144.063C211.133 146.735 216.183 148.591 223.828 150.651C229.064 152.054 240.286 154.522 240.52 154.318C240.661 154.16 238.884 153.118 236.709 152.054C235.564 151.511 232.221 150.153 229.251 149.066C213.237 143.158 210.571 142.003 203.067 137.748C197.853 134.805 195.702 133.447 192.195 130.979C184.925 125.84 178.565 120.747 176.859 118.664C174.053 115.269 168.162 106.078 162.504 96.3215C160.914 93.5824 159.535 91.2281 159.418 91.1149C159.301 90.9791 159.488 91.6582 159.839 92.5863Z" fill="#C9673C"/>
<path d="M259.341 153.413C259.598 154.024 260.042 154.793 260.323 155.178C260.72 155.722 260.814 155.767 260.884 155.45C260.954 155.156 259.177 152.349 258.92 152.349C258.873 152.349 259.06 152.824 259.341 153.413Z" fill="#C9673C"/>
<path d="M39.2021 153.752C38.4072 154.884 38.0565 155.948 38.5943 155.631C38.8982 155.45 40.3009 152.801 40.1607 152.666C40.1139 152.598 39.6697 153.096 39.2021 153.752Z" fill="#C9673C"/>
<path d="M325.67 128.502C321.271 128.502 317.706 126.964 314.977 123.887C312.248 120.811 310.883 116.492 310.883 110.931C310.883 106.474 311.759 102.352 313.51 98.5654C315.303 94.7395 317.869 91.663 321.209 89.3359C324.59 86.9693 328.216 85.7861 332.086 85.7861C335.996 85.7861 339.214 86.5355 341.74 88.0343C344.306 89.5331 345.589 91.5052 345.589 93.9506C345.589 96.3566 344.897 98.2695 343.512 99.6895C341.882 99.6895 340.009 99.3739 337.89 98.7429C335.772 98.1118 334.184 97.3427 333.124 96.4355L334.285 90.6966C333.43 90.3022 332.595 90.105 331.78 90.105C329.418 90.105 327.34 92.0968 325.548 96.0805C323.755 100.025 322.859 104.659 322.859 109.984C322.859 117.951 325.181 121.935 329.825 121.935C332.595 121.935 335.691 120.476 339.113 117.557L341.984 120.338C341.658 120.85 340.823 121.698 339.479 122.882C338.135 124.025 336.852 124.952 335.63 125.662C334.448 126.372 332.941 127.023 331.108 127.615C329.316 128.206 327.503 128.502 325.67 128.502Z" fill="white"/>
<path d="M363.378 87.5018C363.378 90.2628 362.339 95.9425 360.262 104.541C363.765 102.608 366.515 101.642 368.511 101.642C370.547 101.642 372.054 102.174 373.032 103.239C374.01 104.265 374.499 105.566 374.499 107.144C374.499 108.682 374.05 111.128 373.154 114.48C372.258 117.793 371.81 119.963 371.81 120.988C371.81 122.014 371.973 122.527 372.299 122.527L375.476 121.698L376.576 124.656C375.313 125.564 373.562 126.431 371.321 127.26C369.122 128.088 367.166 128.502 365.455 128.502C362.156 128.502 360.506 126.688 360.506 123.059C360.506 121.402 360.934 118.957 361.789 115.723C362.645 112.489 363.072 110.457 363.072 109.629C363.072 108.761 362.767 108.327 362.156 108.327C361.3 108.327 360.262 108.722 359.04 109.511C357.207 117.044 356.29 122.29 356.29 125.248L356.351 126.668C352.196 127.733 348.469 128.265 345.169 128.265C344.925 128.147 344.803 127.516 344.803 126.372C344.803 123.927 346.004 117.872 348.408 108.209C350.852 98.5456 352.074 92.0377 352.074 88.6851C352.074 87.6596 351.992 86.7524 351.829 85.9635C355.781 84.8986 359.488 84.3661 362.95 84.3661C363.235 85.0367 363.378 86.0819 363.378 87.5018Z" fill="white"/>
<path d="M387.999 128.502C384.822 128.502 382.316 127.536 380.483 125.603C378.65 123.631 377.734 120.87 377.734 117.32C377.734 112.982 379.058 109.313 381.705 106.316C384.353 103.279 387.836 101.76 392.154 101.76L394.904 101.997C395.881 101.721 396.798 101.583 397.653 101.583C399.69 101.583 401.136 102.253 401.991 103.594C402.888 104.935 403.397 106.848 403.519 109.333C405.23 109.254 406.859 108.998 408.407 108.564L409.263 108.327C409.548 108.603 409.751 109.432 409.874 110.812L409.935 111.463C408.102 112.37 405.861 113.08 403.213 113.593C402.317 117.774 400.545 121.304 397.898 124.183C395.25 127.062 391.95 128.502 387.999 128.502ZM389.221 117.084C389.221 120.752 390.178 122.586 392.093 122.586C393.437 122.586 394.802 121.757 396.187 120.101C397.612 118.444 398.59 116.433 399.12 114.066C394.965 114.066 392.887 112.134 392.887 108.268C392.887 107.598 392.948 106.907 393.07 106.197C392.663 106.197 392.358 106.257 392.154 106.375C391.461 107.085 390.789 108.525 390.138 110.694C389.527 112.824 389.221 114.954 389.221 117.084Z" fill="white"/>
<path d="M421.012 105.547C419.749 105.547 418.67 106.631 417.774 108.801C416.877 110.97 416.429 113.159 416.429 115.368C416.429 120.219 417.875 122.645 420.768 122.645C422.601 122.645 424.678 121.797 427 120.101L428.955 122.704C427.245 124.518 425.187 125.938 422.784 126.964C420.421 127.989 418.059 128.502 415.696 128.502C412.519 128.502 409.932 127.575 407.936 125.721C405.981 123.828 405.003 120.988 405.003 117.202C405.003 112.627 406.449 108.88 409.341 105.961C412.274 103.042 416.103 101.583 420.829 101.583C423.884 101.583 426.287 102.194 428.039 103.417C429.79 104.6 430.666 106.119 430.666 107.972C430.666 109.787 430.096 111.364 428.955 112.705C427.611 112.705 426.145 112.469 424.556 111.995C423.008 111.483 421.766 110.852 420.829 110.102L421.745 105.665C421.501 105.586 421.256 105.547 421.012 105.547Z" fill="white"/>
<path d="M441.165 128.502C437.988 128.502 435.483 127.536 433.65 125.603C431.817 123.631 430.9 120.87 430.9 117.32C430.9 112.982 432.224 109.313 434.872 106.316C437.52 103.279 441.002 101.76 445.32 101.76L448.07 101.997C449.048 101.721 449.964 101.583 450.82 101.583C452.856 101.583 454.302 102.253 455.158 103.594C456.054 104.935 456.563 106.848 456.686 109.333C458.396 109.254 460.026 108.998 461.574 108.564L462.429 108.327C462.714 108.603 462.918 109.432 463.04 110.812L463.101 111.463C461.268 112.37 459.028 113.08 456.38 113.593C455.484 117.774 453.712 121.304 451.064 124.183C448.416 127.062 445.117 128.502 441.165 128.502ZM442.387 117.084C442.387 120.752 443.345 122.586 445.259 122.586C446.604 122.586 447.968 121.757 449.353 120.101C450.779 118.444 451.757 116.433 452.286 114.066C448.131 114.066 446.054 112.134 446.054 108.268C446.054 107.598 446.115 106.907 446.237 106.197C445.83 106.197 445.524 106.257 445.32 106.375C444.628 107.085 443.956 108.525 443.304 110.694C442.693 112.824 442.387 114.954 442.387 117.084Z" fill="white"/>
<path d="M475.278 124.479C473.975 125.583 472.264 126.53 470.146 127.319C468.028 128.108 466.093 128.502 464.341 128.502C462.63 128.502 461.225 128.029 460.125 127.082C459.025 126.096 458.475 124.696 458.475 122.882C458.475 121.067 459.494 116.019 461.53 107.736C463.608 99.4134 464.647 93.2407 464.647 89.2175C464.647 88.3498 464.524 87.2454 464.28 85.9044C468.109 84.8789 471.816 84.3661 475.401 84.3661C475.767 84.9972 475.951 86.0227 475.951 87.4426C475.951 90.1247 474.912 95.9819 472.834 105.014C470.798 114.007 469.779 119.194 469.779 120.574C469.779 121.955 470.024 122.645 470.512 122.645C470.92 122.645 471.796 122.389 473.14 121.876L473.812 121.58L475.278 124.479Z" fill="white"/>
<path d="M506.739 103.831C505.883 106.395 505.15 109.451 504.539 113.001C503.928 116.512 503.622 118.977 503.622 120.397C503.622 121.777 503.846 122.467 504.295 122.467L507.35 121.639L508.449 124.597C507.146 125.583 505.476 126.491 503.439 127.319C501.443 128.108 499.671 128.502 498.123 128.502C495.475 128.502 493.805 127.398 493.113 125.189C489.895 127.398 487.043 128.502 484.558 128.502C482.114 128.502 480.22 127.634 478.876 125.899C477.532 124.163 476.859 121.679 476.859 118.444C476.859 113.987 478.041 110.063 480.403 106.671C482.766 103.279 485.882 101.583 489.752 101.583C491.87 101.583 494.029 102.155 496.229 103.298C496.555 102.588 496.82 102.076 497.023 101.76C499.956 101.76 503.195 102.45 506.739 103.831ZM488.347 117.734C488.347 119.706 488.489 120.949 488.774 121.462C489.06 121.974 489.589 122.231 490.363 122.231C491.137 122.231 491.891 121.935 492.624 121.343C492.787 116.768 493.561 111.976 494.946 106.967C494.335 106.612 493.622 106.434 492.807 106.434C492.033 106.434 491.32 106.868 490.669 107.736C490.058 108.603 489.589 109.688 489.263 110.99C488.652 113.475 488.347 115.723 488.347 117.734Z" fill="white"/>
<path d="M530.278 106.848L525.024 106.434C523.394 113.494 522.498 117.596 522.335 118.74C522.213 119.884 522.152 120.831 522.152 121.58C522.152 122.29 522.396 122.645 522.885 122.645C523.455 122.645 524.535 122.29 526.123 121.58L527.59 124.42C526.286 125.564 524.637 126.53 522.641 127.319C520.645 128.108 518.71 128.502 516.836 128.502C515.003 128.502 513.536 128.049 512.436 127.141C511.337 126.195 510.787 124.873 510.787 123.177C510.787 121.481 511.296 118.76 512.314 115.013C513.333 111.266 514.005 108.485 514.331 106.671C513.353 106.75 511.907 106.888 509.992 107.085C509.829 106.257 509.748 105.487 509.748 104.778C509.748 104.028 509.85 103.2 510.053 102.293H514.942C514.982 101.78 515.003 100.064 515.003 97.1454L514.881 94.7197C518.832 93.4576 522.6 92.8265 526.185 92.8265C526.47 93.4576 526.612 94.562 526.612 96.1397C526.612 97.6779 526.347 99.7289 525.818 102.293H531.317C531.317 103.91 530.971 105.428 530.278 106.848Z" fill="white"/>
<path d="M529.416 117.084C529.416 112.193 530.944 108.387 533.999 105.665C537.095 102.943 540.904 101.583 545.425 101.583C548.562 101.583 551.067 102.253 552.941 103.594C554.855 104.896 555.813 106.651 555.813 108.86C555.813 110.477 555.303 111.917 554.285 113.179C553.267 114.441 552.024 115.407 550.558 116.078C547.462 117.419 544.773 118.227 542.492 118.503L540.965 118.681C541.413 121.284 542.757 122.586 544.997 122.586C545.975 122.586 547.055 122.389 548.236 121.994C549.417 121.56 550.354 121.126 551.047 120.693L552.085 120.101L554.041 122.645C554.041 122.645 553.817 122.862 553.369 123.296C553.124 123.532 552.534 124.006 551.597 124.716C550.7 125.386 549.743 125.978 548.725 126.491C547.747 127.003 546.484 127.457 544.936 127.851C543.388 128.285 541.841 128.502 540.293 128.502C536.83 128.502 534.142 127.536 532.227 125.603C530.353 123.631 529.416 120.791 529.416 117.084ZM540.72 114.776C541.902 114.618 543.083 113.691 544.264 111.995C545.446 110.26 546.036 108.82 546.036 107.677C546.036 106.493 545.69 105.902 544.997 105.902C543.979 105.902 543.042 106.671 542.187 108.209C541.331 109.747 540.843 111.936 540.72 114.776Z" fill="white"/>
<path d="M583.538 128.561C578.405 128.561 574.454 126.964 571.684 123.769C570.176 122.034 569.423 119.923 569.423 117.439C569.423 114.086 570.645 111.345 573.089 109.215C575.533 107.045 578.425 105.783 581.766 105.428C576.633 104.087 574.067 101.228 574.067 96.8496C574.067 93.4576 575.574 90.7755 578.588 88.8034C581.603 86.7918 585.024 85.7861 588.854 85.7861C592.723 85.7861 595.941 86.5552 598.508 88.0934C601.074 89.6317 602.357 91.663 602.357 94.1873C602.357 95.6466 601.95 97.0271 601.135 98.3287L600.707 98.9795C599.037 98.9795 597.245 98.7429 595.33 98.2696C593.416 97.7568 591.97 97.106 590.992 96.3172L591.603 90.2825C590.992 90.0064 590.381 89.8683 589.77 89.8683C588.507 89.8683 587.53 90.5191 586.837 91.8207C586.185 93.1223 585.859 94.6409 585.859 96.3763C585.859 98.1118 586.043 99.4923 586.409 100.518C586.817 101.543 587.428 102.332 588.242 102.884C589.098 103.397 589.831 103.772 590.442 104.008C591.094 104.206 591.99 104.423 593.131 104.659L592.642 108.091C589.831 108.091 587.244 108.86 584.882 110.398C582.519 111.936 581.338 114.007 581.338 116.61C581.338 118.464 581.949 119.825 583.171 120.693C584.393 121.521 585.839 121.935 587.509 121.935C589.22 121.935 591.012 121.521 592.886 120.693C594.76 119.864 596.369 118.819 597.713 117.557L600.463 120.219C598.711 122.546 596.288 124.518 593.192 126.136C590.096 127.753 586.878 128.561 583.538 128.561Z" fill="white"/>
<path d="M602.475 123C602.475 121.343 603.004 118.622 604.063 114.835C605.163 111.049 605.713 108.722 605.713 107.854C605.713 106.986 604.98 105.724 603.513 104.068L603.636 103.18C607.342 102.391 611.681 101.997 616.65 101.997C616.976 102.667 617.139 103.732 617.139 105.192C617.139 106.651 616.569 109.412 615.428 113.475C614.329 117.537 613.779 119.943 613.779 120.693C613.779 121.718 614.288 122.231 615.306 122.231C615.999 122.231 616.874 121.974 617.934 121.462C618.056 120.831 618.422 119.174 619.033 116.492C620.459 110.536 621.172 106.079 621.172 103.121C623.046 102.332 626.244 101.938 630.765 101.938H632.415C632.415 103.713 631.865 107.184 630.765 112.35C629.706 117.517 629.156 120.495 629.115 121.284C629.115 122.073 629.299 122.467 629.665 122.467L632.659 121.698L633.759 124.656C632.578 125.564 630.867 126.431 628.627 127.26C626.386 128.088 624.41 128.502 622.7 128.502C620.174 128.502 618.606 127.516 617.995 125.544C614.614 127.516 611.375 128.502 608.279 128.502C604.41 128.502 602.475 126.668 602.475 123Z" fill="white"/>
<path d="M633.331 141.045C633.005 140.532 632.842 139.447 632.842 137.791C632.842 136.134 633.616 131.638 635.164 124.301C636.753 116.965 637.547 112.37 637.547 110.516C637.547 108.663 637.364 107.262 636.997 106.316C636.631 105.33 636.264 104.699 635.897 104.423L635.347 104.008L635.47 103.121C637.914 102.372 642.048 101.997 647.873 101.997C648.199 102.588 648.464 103.358 648.668 104.304C651.275 102.49 653.739 101.583 656.061 101.583C658.383 101.583 660.277 102.45 661.744 104.186C663.251 105.882 664.005 108.781 664.005 112.883C664.005 116.985 662.884 120.614 660.644 123.769C658.444 126.924 655.206 128.502 650.929 128.502C649.055 128.502 647.222 128.147 645.429 127.437C644.492 131.894 644.024 135.819 644.024 139.211C641.091 140.236 637.527 140.848 633.331 141.045ZM648.118 123.532C649.218 123.532 650.155 122.744 650.929 121.166C652.314 118.405 653.006 115.052 653.006 111.108C653.006 108.781 652.415 107.617 651.234 107.617C650.623 107.617 649.808 107.834 648.79 108.268C648.546 111.581 647.731 116.571 646.346 123.237C647.038 123.434 647.629 123.532 648.118 123.532Z" fill="white"/>
<path d="M684.823 87.5018C684.823 90.2628 683.785 95.9425 681.707 104.541C685.21 102.608 687.96 101.642 689.956 101.642C691.993 101.642 693.5 102.174 694.478 103.239C695.455 104.265 695.944 105.566 695.944 107.144C695.944 108.682 695.496 111.128 694.6 114.48C693.704 117.793 693.256 119.963 693.256 120.988C693.256 122.014 693.418 122.527 693.744 122.527L696.922 121.698L698.022 124.656C696.759 125.564 695.007 126.431 692.767 127.26C690.567 128.088 688.612 128.502 686.901 128.502C683.601 128.502 681.952 126.688 681.952 123.059C681.952 121.402 682.379 118.957 683.235 115.723C684.09 112.489 684.518 110.457 684.518 109.629C684.518 108.761 684.212 108.327 683.601 108.327C682.746 108.327 681.707 108.722 680.485 109.511C678.652 117.044 677.735 122.29 677.735 125.248L677.797 126.668C673.642 127.733 669.914 128.265 666.615 128.265C666.37 128.147 666.248 127.516 666.248 126.372C666.248 123.927 667.45 117.872 669.853 108.209C672.297 98.5456 673.519 92.0377 673.519 88.6851C673.519 87.6596 673.438 86.7524 673.275 85.9635C677.226 84.8986 680.933 84.3661 684.396 84.3661C684.681 85.0367 684.823 86.0819 684.823 87.5018Z" fill="white"/>
<path d="M709.444 128.502C706.267 128.502 703.762 127.536 701.929 125.603C700.096 123.631 699.179 120.87 699.179 117.32C699.179 112.982 700.503 109.313 703.151 106.316C705.799 103.279 709.281 101.76 713.599 101.76L716.349 101.997C717.327 101.721 718.243 101.583 719.099 101.583C721.135 101.583 722.581 102.253 723.437 103.594C724.333 104.935 724.842 106.848 724.965 109.333C726.675 109.254 728.305 108.998 729.853 108.564L730.708 108.327C730.993 108.603 731.197 109.432 731.319 110.812L731.38 111.463C729.547 112.37 727.307 113.08 724.659 113.593C723.763 117.774 721.991 121.304 719.343 124.183C716.695 127.062 713.396 128.502 709.444 128.502ZM710.666 117.084C710.666 120.752 711.624 122.586 713.538 122.586C714.883 122.586 716.247 121.757 717.632 120.101C719.058 118.444 720.036 116.433 720.565 114.066C716.41 114.066 714.333 112.134 714.333 108.268C714.333 107.598 714.394 106.907 714.516 106.197C714.109 106.197 713.803 106.257 713.599 106.375C712.907 107.085 712.235 108.525 711.583 110.694C710.972 112.824 710.666 114.954 710.666 117.084Z" fill="white"/>
<path d="M727.385 128.147H726.896C726.774 127.595 726.713 126.747 726.713 125.603C726.713 124.42 727.202 121.402 728.18 116.551C729.198 111.66 729.707 108.899 729.707 108.268C729.707 107.598 729.524 106.927 729.157 106.257C728.791 105.547 728.424 105.014 728.057 104.659L727.507 104.127L727.63 103.239C730.074 102.49 734.127 102.115 739.789 102.115C740.319 103.101 740.644 104.265 740.767 105.606C743.252 102.924 745.451 101.583 747.366 101.583C749.851 101.583 751.215 103.614 751.46 107.677C751.378 107.755 751.276 107.893 751.154 108.091C751.032 108.248 750.747 108.544 750.299 108.978C749.851 109.412 749.382 109.806 748.893 110.161C747.508 111.069 746.042 111.601 744.494 111.759C744.453 111.759 744.168 111.325 743.638 110.457C743.15 109.589 742.722 109.156 742.355 109.156C742.029 109.156 741.398 109.511 740.461 110.221C740.339 110.931 740.095 112.134 739.728 113.83C739.402 115.526 739.137 116.926 738.934 118.03C738.323 120.949 738.017 123.394 738.017 125.366L738.078 127.141C736.286 127.812 732.721 128.147 727.385 128.147Z" fill="white"/>
<path d="M764.756 105.606C764.756 107.341 764.247 110.043 763.228 113.711C762.21 117.34 761.701 119.706 761.701 120.811C761.701 121.915 761.925 122.467 762.373 122.467C762.821 122.467 763.636 122.27 764.817 121.876L765.367 121.639L766.467 124.597C765.082 125.623 763.35 126.53 761.273 127.319C759.236 128.108 757.383 128.502 755.713 128.502C754.042 128.502 752.718 128.049 751.741 127.141C750.804 126.234 750.335 124.933 750.335 123.237C750.335 121.501 750.824 118.878 751.802 115.368C752.82 111.818 753.329 109.57 753.329 108.623C753.329 107.164 752.8 105.783 751.741 104.482L751.252 103.831L751.435 102.825C753.554 102.194 757.668 101.879 763.778 101.879C764.43 102.588 764.756 103.831 764.756 105.606ZM760.173 97.2638C758.34 97.2638 756.894 96.7905 755.835 95.8438C754.816 94.8972 754.307 93.6942 754.307 92.2349C754.307 90.7361 754.939 89.4936 756.201 88.5076C757.505 87.4821 759.073 86.9693 760.906 86.9693C762.739 86.9693 764.165 87.3835 765.183 88.2118C766.202 89.04 766.711 90.2036 766.711 91.7024C766.711 93.2012 766.08 94.5028 764.817 95.6072C763.595 96.7116 762.047 97.2638 760.173 97.2638Z" fill="white"/>
<path d="M798.289 103.831C797.434 106.395 796.7 109.451 796.089 113.001C795.478 116.512 795.173 118.977 795.173 120.397C795.173 121.777 795.397 122.467 795.845 122.467L798.9 121.639L800 124.597C798.696 125.583 797.026 126.491 794.99 127.319C792.994 128.108 791.222 128.502 789.674 128.502C787.026 128.502 785.356 127.398 784.663 125.189C781.445 127.398 778.594 128.502 776.109 128.502C773.665 128.502 771.771 127.634 770.426 125.899C769.082 124.163 768.41 121.679 768.41 118.444C768.41 113.987 769.591 110.063 771.954 106.671C774.317 103.279 777.433 101.583 781.303 101.583C783.421 101.583 785.58 102.155 787.779 103.298C788.105 102.588 788.37 102.076 788.574 101.76C791.507 101.76 794.745 102.45 798.289 103.831ZM779.897 117.734C779.897 119.706 780.04 120.949 780.325 121.462C780.61 121.974 781.14 122.231 781.914 122.231C782.688 122.231 783.441 121.935 784.174 121.343C784.337 116.768 785.111 111.976 786.496 106.967C785.885 106.612 785.172 106.434 784.358 106.434C783.584 106.434 782.871 106.868 782.219 107.736C781.608 108.603 781.14 109.688 780.814 110.99C780.203 113.475 779.897 115.723 779.897 117.734Z" fill="white"/>
<path d="M320.14 62.6901C317.299 62.6901 314.946 61.5808 313.083 59.3622C311.219 57.114 310.287 54.1854 310.287 50.5764C310.287 46.9674 310.929 43.6839 312.212 40.7257C313.495 37.7379 315.328 35.3122 317.711 33.4486C320.094 31.5849 322.63 30.6531 325.319 30.6531C328.038 30.6531 330.222 31.2447 331.872 32.428C333.552 33.6113 334.392 35.0312 334.392 36.6878C334.392 38.3148 333.888 39.7051 332.88 40.8588C331.902 40.8588 330.803 40.6517 329.58 40.2376C328.358 39.8234 327.442 39.3205 326.831 38.7289L327.702 34.2473C326.968 33.8035 326.006 33.5817 324.814 33.5817C322.951 33.5817 321.301 35.1347 319.865 38.2408C318.429 41.3173 317.711 45.1186 317.711 49.6446C317.711 52.6323 318.215 54.8066 319.224 56.1673C320.262 57.4985 321.515 58.1641 322.981 58.1641C325.395 58.1641 327.717 57.0696 329.947 54.8805L331.826 56.5223C331.49 56.9956 330.879 57.6464 329.993 58.4747C329.107 59.303 328.236 59.9982 327.381 60.5602C326.525 61.0927 325.441 61.5808 324.127 62.0245C322.813 62.4683 321.484 62.6901 320.14 62.6901Z" fill="white"/>
<path d="M340.579 62.6901C338.471 62.6901 336.821 61.9802 335.629 60.5602C334.438 59.1107 333.842 57.0992 333.842 54.5256C333.842 51.242 334.743 48.4169 336.546 46.0504C338.379 43.6838 340.899 42.5006 344.107 42.5006L345.757 42.5893C346.276 42.3231 346.857 42.19 347.498 42.19C349.912 42.19 351.119 44.3938 351.119 48.8015C352.371 48.7423 353.639 48.5796 354.922 48.3134L355.656 48.1359L355.931 49.8664C354.922 50.2806 353.563 50.6503 351.852 50.9757L350.936 51.1532C350.355 54.2593 349.179 56.9661 347.407 59.2734C345.635 61.5512 343.359 62.6901 340.579 62.6901ZM343.053 58.8741C344.336 58.8741 345.482 58.0754 346.49 56.478C347.529 54.8805 348.247 53.1944 348.644 51.4195C345.375 51.4195 343.741 50.2362 343.741 47.8697C343.741 46.923 343.939 46.0356 344.336 45.2073L344.566 44.7636C344.443 44.7044 344.291 44.6748 344.107 44.6748C343.924 44.6748 343.787 44.7044 343.695 44.7636C342.931 45.2369 342.213 46.3462 341.541 48.0915C340.869 49.8368 340.533 51.8336 340.533 54.0818C340.533 57.2767 341.373 58.8741 343.053 58.8741Z" fill="white"/>
<path d="M353.48 62.2908H352.61C352.61 60.9004 353.037 58.2381 353.893 54.3037C354.779 50.3693 355.222 48.1359 355.222 47.6034C355.222 46.6272 354.794 45.5919 353.939 44.4973L353.526 43.9649L353.572 43.388C355.222 42.9443 357.864 42.7224 361.5 42.7224C361.897 43.2253 362.111 44.1424 362.142 45.4735C364.8 43.4916 367.045 42.5006 368.878 42.5006C369.978 42.5006 370.849 42.8704 371.49 43.6099C372.162 44.3494 372.499 45.2813 372.499 46.4054C372.499 47.4999 372.147 49.4079 371.445 52.1294C370.742 54.851 370.391 56.685 370.391 57.6316C370.391 58.5487 370.513 59.0072 370.757 59.0072C370.94 59.0072 371.582 58.7262 372.682 58.1641L373.232 57.8979L374.057 59.4509C373.782 59.6876 373.415 59.9834 372.957 60.3384C372.499 60.6933 371.643 61.1815 370.391 61.8027C369.168 62.3943 368.069 62.6901 367.091 62.6901C364.861 62.6901 363.746 61.4625 363.746 59.0072C363.746 57.9718 364.082 56.0638 364.754 53.2831C365.456 50.5024 365.808 48.7127 365.808 47.914C365.808 47.1153 365.548 46.716 365.029 46.716C364.143 46.716 363.058 47.0858 361.775 47.8253C361.683 48.3282 361.378 49.6594 360.858 51.8188C359.789 56.4632 359.255 59.7467 359.255 61.6695C358.185 62.0837 356.261 62.2908 353.48 62.2908Z" fill="white"/>
<path d="M388.896 43.0331C388.835 43.6838 388.56 44.5417 388.071 45.6067C386.91 45.4883 385.765 45.4292 384.634 45.4292H384.451C383.809 52.7359 383.213 58.1345 382.664 61.6252C382.114 65.1158 381.396 67.5563 380.51 68.9467C379.41 68.9171 378.264 68.7692 377.073 68.5029C375.912 68.2663 375.117 68.0148 374.69 67.7486C375.423 65.5595 376.156 62.2612 376.889 57.8535C377.653 53.4458 378.142 49.3783 378.356 45.651C377.5 45.7102 376.553 45.8137 375.515 45.9616C375.423 45.5771 375.377 45.1925 375.377 44.808C375.377 44.3938 375.438 43.8022 375.56 43.0331H378.493C378.554 40.4594 378.692 38.507 378.906 37.1759C379.272 34.8093 380.113 32.9605 381.426 31.6293C382.77 30.2685 384.497 29.5882 386.605 29.5882C387.949 29.5882 389.003 29.884 389.767 30.4756C390.561 31.0377 390.958 31.9399 390.958 33.1823C390.958 34.4248 390.378 36.037 389.217 38.0189C388.056 39.9713 386.528 41.6427 384.634 43.0331H388.896ZM384.726 40.2376C385.917 39.2614 386.849 38.1816 387.521 36.9984C388.193 35.8151 388.529 34.7502 388.529 33.8035C388.529 32.8274 388.209 32.3393 387.567 32.3393C386.223 32.3393 385.367 33.8331 385.001 36.8209C384.879 37.8267 384.787 38.9656 384.726 40.2376Z" fill="white"/>
<path d="M388.757 54.4812C388.757 50.7835 389.903 47.8697 392.194 45.7398C394.516 43.5803 397.143 42.5006 400.076 42.5006C401.879 42.5006 403.361 42.9295 404.522 43.7874C405.683 44.6453 406.263 45.7989 406.263 47.2484C406.263 48.6684 405.881 49.8664 405.117 50.8426C404.384 51.8188 403.483 52.5732 402.414 53.1056C400.244 54.141 398.259 54.7918 396.456 55.058L395.356 55.1911C395.57 57.9718 396.746 59.3622 398.885 59.3622C399.618 59.3622 400.397 59.1847 401.222 58.8297C402.047 58.4747 402.689 58.1197 403.147 57.7648L403.834 57.2323L404.934 58.6522C404.69 58.9776 404.201 59.4065 403.468 59.939C402.734 60.4715 402.047 60.9152 401.405 61.2702C399.633 62.2168 397.693 62.6901 395.585 62.6901C393.477 62.6901 391.812 61.9654 390.59 60.5159C389.368 59.0664 388.757 57.0548 388.757 54.4812ZM395.31 53.0169C396.868 52.7507 398.106 52.1146 399.022 51.1089C399.939 50.1031 400.397 48.8015 400.397 47.2041C400.397 45.6067 399.908 44.808 398.931 44.808C397.77 44.808 396.868 45.7694 396.227 47.6922C395.616 49.5854 395.31 51.3603 395.31 53.0169Z" fill="white"/>
<path d="M416.731 45.2517C416.731 46.4941 416.318 48.6388 415.493 51.6857C414.668 54.703 414.256 56.685 414.256 57.6316C414.256 58.5487 414.393 59.0072 414.668 59.0072C414.852 59.0072 415.554 58.7262 416.776 58.1641L417.326 57.8979L418.105 59.4509C417.83 59.6876 417.464 59.9834 417.006 60.3384C416.547 60.6933 415.692 61.1815 414.439 61.8027C413.187 62.3943 412.026 62.6901 410.956 62.6901C409.887 62.6901 409.047 62.3795 408.436 61.7583C407.825 61.1075 407.519 60.2496 407.519 59.1847C407.519 58.0902 407.901 56.1673 408.665 53.4162C409.429 50.6356 409.811 48.8311 409.811 48.0028C409.811 46.7603 409.414 45.5919 408.619 44.4973L408.207 43.9649L408.253 43.388C409.872 42.9443 412.499 42.7224 416.135 42.7224C416.532 43.1662 416.731 44.0092 416.731 45.2517ZM411.506 37.8858C410.895 37.2942 410.59 36.5103 410.59 35.5341C410.59 34.5579 411.002 33.7 411.827 32.9605C412.683 32.2209 413.66 31.8512 414.76 31.8512C415.86 31.8512 416.715 32.147 417.326 32.7386C417.937 33.3302 418.243 34.1142 418.243 35.0904C418.243 36.037 417.8 36.8801 416.914 37.6196C416.058 38.3591 415.096 38.7289 414.027 38.7289C412.957 38.7289 412.117 38.4479 411.506 37.8858Z" fill="white"/>
<path d="M434.074 43.0331C434.013 43.7726 433.754 44.6305 433.295 45.6067C432.134 45.4883 431.034 45.4292 429.996 45.4292H429.171C427.765 52.0259 427.063 56.1378 427.063 57.7648C427.063 58.6226 427.246 59.0516 427.613 59.0516C428.01 59.0516 429.033 58.6818 430.683 57.9422L431.508 59.4065C428.789 61.5956 426.268 62.6901 423.947 62.6901C422.877 62.6901 421.991 62.3647 421.289 61.7139C420.616 61.0631 420.28 60.2052 420.28 59.1403C420.28 58.0458 420.403 56.8181 420.647 55.4574C420.922 54.0966 421.289 52.44 421.747 50.4876C422.205 48.5057 422.541 46.9083 422.755 45.6954C421.625 45.7842 420.784 45.8729 420.235 45.9616C420.173 45.6067 420.143 45.1334 420.143 44.5417C420.143 43.9205 420.189 43.4176 420.28 43.0331H423.167C423.412 41.4356 423.534 39.927 423.534 38.507L423.488 37.1315V36.9984C425.871 36.1997 428.117 35.8003 430.225 35.8003C430.347 36.392 430.408 37.1315 430.408 38.0189C430.408 38.9064 430.148 40.5778 429.629 43.0331H434.074Z" fill="white"/>
<path d="M446.902 43.7874C446.963 43.7282 447.131 43.3437 447.406 42.6337C448.842 42.6337 450.767 43.0478 453.181 43.8761C452.417 46.3314 451.806 48.905 451.347 51.597C450.889 54.2593 450.66 56.1673 450.66 57.321C450.66 58.4451 450.782 59.0072 451.027 59.0072C451.21 59.0072 451.882 58.7262 453.043 58.1641L453.593 57.8979L454.418 59.4509C454.143 59.6876 453.776 59.9834 453.318 60.3384C452.89 60.6933 452.065 61.1815 450.843 61.8027C449.621 62.3943 448.521 62.6901 447.544 62.6901C445.65 62.6901 444.55 61.8618 444.244 60.2052C442.289 61.8618 440.517 62.6901 438.928 62.6901C437.37 62.6901 436.041 62.0985 434.941 60.9152C433.872 59.7319 433.337 57.8683 433.337 55.3243C433.337 51.3603 434.178 48.2394 435.858 45.9616C437.538 43.6543 439.57 42.5006 441.953 42.5006C443.664 42.5006 445.314 42.9295 446.902 43.7874ZM441.678 58.9184C442.411 58.9184 443.236 58.6374 444.153 58.0754C444.367 53.9043 445.084 49.7777 446.307 45.6954C445.39 45.3108 444.611 45.1186 443.969 45.1186C442.87 45.1186 441.922 46.1687 441.128 48.269C440.364 50.3397 439.982 52.6323 439.982 55.1468C439.982 57.6612 440.548 58.9184 441.678 58.9184Z" fill="white"/>
<path d="M456.181 62.2908H455.86C455.799 62.0541 455.768 61.5216 455.768 60.6933C455.768 59.8355 456.181 57.5577 457.006 53.86C457.831 50.1623 458.243 48.0472 458.243 47.5147C458.243 46.5976 457.815 45.5919 456.96 44.4973L456.547 43.9649L456.593 43.388C458.243 42.9443 460.886 42.7224 464.521 42.7224C464.888 43.4916 465.071 44.5713 465.071 45.9616C465.407 45.4292 466.11 44.7192 467.179 43.8318C468.249 42.9443 469.348 42.5006 470.479 42.5006C472.129 42.5006 472.953 43.8909 472.953 46.6716C472.801 46.8491 472.587 47.0858 472.312 47.3816C472.068 47.6478 471.548 48.0324 470.754 48.5353C469.99 49.0381 469.242 49.3488 468.508 49.4671C468.478 49.4671 468.218 49.0677 467.729 48.269C467.24 47.4703 466.874 47.071 466.629 47.071C465.866 47.3372 465.193 47.7809 464.613 48.4021C463.208 54.5256 462.505 58.4895 462.505 60.294C462.505 60.9448 462.52 61.4033 462.551 61.6695C461.481 62.0837 459.358 62.2908 456.181 62.2908Z" fill="white"/>
<path d="M481.443 45.2517C481.443 46.4941 481.031 48.6388 480.206 51.6857C479.381 54.703 478.969 56.685 478.969 57.6316C478.969 58.5487 479.106 59.0072 479.381 59.0072C479.564 59.0072 480.267 58.7262 481.489 58.1641L482.039 57.8979L482.818 59.4509C482.543 59.6876 482.177 59.9834 481.718 60.3384C481.26 60.6933 480.405 61.1815 479.152 61.8027C477.899 62.3943 476.738 62.6901 475.669 62.6901C474.6 62.6901 473.76 62.3795 473.149 61.7583C472.538 61.1075 472.232 60.2496 472.232 59.1847C472.232 58.0902 472.614 56.1673 473.378 53.4162C474.142 50.6356 474.523 48.8311 474.523 48.0028C474.523 46.7603 474.126 45.5919 473.332 44.4973L472.919 43.9649L472.965 43.388C474.585 42.9443 477.212 42.7224 480.848 42.7224C481.245 43.1662 481.443 44.0092 481.443 45.2517ZM476.219 37.8858C475.608 37.2942 475.302 36.5103 475.302 35.5341C475.302 34.5579 475.715 33.7 476.54 32.9605C477.395 32.2209 478.373 31.8512 479.473 31.8512C480.573 31.8512 481.428 32.147 482.039 32.7386C482.65 33.3302 482.956 34.1142 482.956 35.0904C482.956 36.037 482.513 36.8801 481.627 37.6196C480.771 38.3591 479.809 38.7289 478.74 38.7289C477.67 38.7289 476.83 38.4479 476.219 37.8858Z" fill="white"/>
<path d="M498.1 43.7874C498.161 43.7282 498.329 43.3437 498.604 42.6337C500.04 42.6337 501.964 43.0478 504.378 43.8761C503.614 46.3314 503.003 48.905 502.545 51.597C502.087 54.2593 501.857 56.1673 501.857 57.321C501.857 58.4451 501.98 59.0072 502.224 59.0072C502.407 59.0072 503.08 58.7262 504.24 58.1641L504.79 57.8979L505.615 59.4509C505.34 59.6876 504.974 59.9834 504.515 60.3384C504.088 60.6933 503.263 61.1815 502.041 61.8027C500.819 62.3943 499.719 62.6901 498.741 62.6901C496.847 62.6901 495.747 61.8618 495.442 60.2052C493.486 61.8618 491.714 62.6901 490.126 62.6901C488.568 62.6901 487.239 62.0985 486.139 60.9152C485.07 59.7319 484.535 57.8683 484.535 55.3243C484.535 51.3603 485.375 48.2394 487.055 45.9616C488.736 43.6543 490.767 42.5006 493.15 42.5006C494.861 42.5006 496.511 42.9295 498.1 43.7874ZM492.875 58.9184C493.609 58.9184 494.434 58.6374 495.35 58.0754C495.564 53.9043 496.282 49.7777 497.504 45.6954C496.587 45.3108 495.808 45.1186 495.167 45.1186C494.067 45.1186 493.12 46.1687 492.325 48.269C491.562 50.3397 491.18 52.6323 491.18 55.1468C491.18 57.6612 491.745 58.9184 492.875 58.9184Z" fill="white"/>
</svg>
