<svg width="70" height="38" viewBox="0 0 70 38" fill="none" xmlns="http://www.w3.org/2000/svg">
<path d="M33.0528 0.199408L32.7385 0.393568V2.62378L32.8685 2.7025C32.9607 2.76022 33.0962 2.78121 33.3184 2.77071L33.6327 2.75497L33.7248 1.88912C33.7736 1.41159 33.817 0.876343 33.817 0.703174C33.8224 0.38832 33.817 0.372577 33.6056 0.188912C33.4864 0.0839612 33.3834 0 33.3726 0C33.3671 0 33.2208 0.0892088 33.0528 0.199408Z" fill="#C9673C"/>
<path d="M34.3209 2.61329C34.2559 2.86518 34.1854 3.21152 34.1691 3.38469C34.1366 3.67855 34.1475 3.71528 34.283 3.87271C34.4347 4.05113 34.6786 4.19806 34.8141 4.19806C34.8791 4.19806 35.6162 3.04359 35.6107 2.94389C35.6053 2.90191 34.5377 2.15151 34.4781 2.15151C34.4564 2.15151 34.3805 2.35616 34.3209 2.61329Z" fill="#C9673C"/>
<path d="M29.4595 2.60277C29.026 2.69198 28.2347 3.03832 27.747 3.36367C27.373 3.60506 26.4192 4.39744 26.1265 4.7018L25.9368 4.89596L26.1265 4.79101C26.2295 4.72804 27.1237 4.22952 28.1046 3.67328C29.091 3.11704 29.9419 2.62901 30.0015 2.58703C30.1044 2.52406 30.1045 2.51881 29.9744 2.52406C29.8985 2.52406 29.6709 2.56079 29.4595 2.60277Z" fill="#C9673C"/>
<path d="M39.3232 2.55555C39.3665 2.59753 42.6399 4.45517 43.2523 4.78576C43.6534 5.00091 42.1847 3.72576 41.5723 3.32169C41.1875 3.06981 40.4775 2.74446 40.1307 2.65525C39.6863 2.5503 39.2581 2.49258 39.3232 2.55555Z" fill="#C9673C"/>
<path d="M29.8226 3.12236C28.9609 3.56841 27.1454 4.80683 24.9342 6.45982C24.2351 6.97932 22.8585 7.92913 21.8722 8.56409C16.0732 12.3213 15.114 13.2082 13.0654 16.7398C12.079 18.44 10.7241 20.9536 10.4857 21.5256C9.79737 23.1733 9.33128 25.4035 9.07114 28.2844C8.99526 29.1608 8.97359 29.8744 8.97901 32.1414C8.98443 33.6684 9.00611 35.0276 9.03321 35.1535C9.08198 35.3791 9.09824 35.3424 9.5589 33.7629C10.0846 31.9577 10.2201 31.37 10.4586 29.8062C10.5453 29.2133 10.6699 28.5153 10.735 28.2582C11.071 26.8466 11.9977 24.0392 12.6589 22.4229C13.2984 20.8696 14.068 19.5105 15.3849 17.6319C16.3008 16.3252 16.691 15.8215 17.3197 15.1393C18.3657 14.0111 20.5823 11.9435 21.3844 11.3558C21.5036 11.2666 22.4087 10.6684 23.3896 10.0229C24.376 9.38271 25.422 8.67429 25.72 8.45389C26.4246 7.93438 27.1725 7.20497 28.0775 6.16595C29.0206 5.07971 29.4758 4.62317 29.9148 4.29782C30.3971 3.94623 31.0692 3.61039 31.8441 3.33751C31.9309 3.30603 31.8929 3.27454 31.6274 3.16959C30.744 2.81801 30.4242 2.81276 29.8226 3.12236Z" fill="#C9673C"/>
<path d="M38.2935 2.9859C38.1147 3.03838 37.8491 3.12758 37.6974 3.19055C37.4697 3.27976 37.4427 3.30075 37.5348 3.33749C38.2719 3.60511 38.6892 3.80452 39.204 4.12987C39.7568 4.4867 40.0982 4.81205 41.128 5.98226C42.808 7.88712 43.2362 8.23871 46.282 10.2275C47.2195 10.8415 48.1355 11.4607 48.3143 11.6076C49.4199 12.4892 51.7937 14.7982 52.6554 15.8162C53.0456 16.2832 54.2216 17.931 54.8069 18.8388C55.9884 20.6649 56.5845 21.9086 57.4192 24.2963C58.2484 26.6419 58.6711 28.2057 58.9149 29.78C59.1642 31.4225 59.3052 32.0364 59.8254 33.7943C60.2698 35.3161 60.297 35.3844 60.3349 35.1587C60.3566 35.0275 60.3891 34.0252 60.4108 32.9285C60.5083 27.6442 59.8905 23.5354 58.6223 20.9641C57.972 19.6469 56.2052 16.5036 55.4518 15.3334C53.9506 12.9982 52.6445 11.8858 47.4797 8.55357C46.5692 7.96584 45.2197 7.03177 44.4718 6.48078C42.1414 4.74383 40.1633 3.4057 39.4316 3.06461C39.0035 2.85996 38.7813 2.84422 38.2935 2.9859Z" fill="#C9673C"/>
<path d="M23.3302 3.0436C18.3334 3.3742 13.369 5.8353 8.83829 10.2328C8.28549 10.768 7.50508 11.5814 7.10404 12.0379C6.41033 12.8198 5.09879 14.4623 5.09879 14.541C5.09879 14.562 5.28848 14.5148 5.52152 14.4308C5.74914 14.3521 6.76801 14.032 7.78147 13.7224C12.6537 12.2426 12.865 12.1691 13.4341 11.7021C13.7593 11.4397 14.583 10.5686 14.583 10.4846C14.583 10.4059 13.9706 10.3849 13.4124 10.4374C12.3122 10.5529 10.1281 11.0356 8.61066 11.5079C8.10122 11.6654 8.11749 11.5919 8.64319 11.361C9.38025 11.0304 10.5671 10.7103 13.7592 9.97039C15.5748 9.54533 16.0572 9.41939 16.3065 9.28296C16.6804 9.0783 17.5638 8.51156 18.2846 8.01304C18.9566 7.55126 18.9404 7.53027 17.7535 7.53552C16.4419 7.54076 14.9461 7.76641 12.9843 8.26493C11.6402 8.60602 11.7648 8.58503 11.9545 8.4276C12.697 7.80839 15.6399 7.33611 19.1355 7.27839C20.1977 7.2574 20.2953 7.23641 20.9239 6.82185C21.2545 6.60145 22.0837 5.88253 22.0458 5.84055C22.0349 5.83006 21.6122 5.88253 21.1082 5.95075C18.8049 6.2761 16.6587 6.49125 16.3552 6.42303C16.2252 6.3968 16.2089 6.38105 16.2685 6.32333C16.5287 6.08194 18.0244 5.81956 20.9077 5.50996C22.0132 5.39451 23.0375 5.26332 23.1839 5.22134C23.6174 5.0954 24.4412 4.53391 25.6335 3.54737L26.1429 3.12231L25.9695 3.09083C25.6552 3.02786 24.0076 3.00162 23.3302 3.0436Z" fill="#C9673C"/>
<path d="M43.9136 3.03835C43.5776 3.06459 43.2903 3.09082 43.274 3.10657C43.2144 3.16954 44.7536 4.38697 45.469 4.84876C45.7237 5.01143 46.0543 5.17936 46.2006 5.22134C46.3524 5.26332 47.3658 5.39451 48.4552 5.50995C51.2788 5.80906 52.4494 6.00322 52.9805 6.26035C53.1919 6.36531 53.1973 6.3653 53.0618 6.41253C52.8179 6.50174 50.5634 6.28134 48.1083 5.92976C47.6964 5.87203 47.3442 5.83005 47.3333 5.84055C47.2954 5.88253 48.1192 6.60145 48.4552 6.82184C49.0838 7.2364 49.1814 7.25739 50.2436 7.27838C53.7338 7.3361 56.682 7.80839 57.4245 8.4276C57.6142 8.58502 57.7389 8.60601 56.3948 8.26492C54.4221 7.7664 52.9263 7.54076 51.6256 7.53551C50.4604 7.53026 50.4279 7.5565 51.0078 7.96056C51.9725 8.62176 52.2164 8.78443 52.7637 9.10453C53.3274 9.43513 53.3382 9.44038 54.6172 9.73424C58.877 10.726 60.1885 11.0776 60.9039 11.4345C61.2128 11.5814 61.2453 11.6653 60.9635 11.5656C59.7983 11.1668 57.0614 10.5529 55.9667 10.4374C55.4301 10.3849 54.7961 10.4059 54.7961 10.4794C54.7961 10.5529 55.4464 11.2718 55.7932 11.5761C56.4436 12.1534 56.5466 12.1901 61.0665 13.5597C62.3509 13.9533 63.6028 14.3416 63.8413 14.4308C64.0852 14.5148 64.2803 14.5725 64.2803 14.5568C64.2803 14.499 63.4782 13.4548 62.9633 12.8408C59.8742 9.14651 56.1347 6.23412 52.4114 4.62311C49.6312 3.42142 46.6342 2.86518 43.9136 3.03835Z" fill="#C9673C"/>
<path d="M31.6816 3.64186C31.3456 3.79404 30.679 4.27682 30.1262 4.77534C29.8119 5.05346 29.5517 5.36831 29.1128 6.00327C28.6196 6.71169 28.4245 6.94783 27.9855 7.33615C26.9666 8.24922 24.9939 9.71854 22.8694 11.1459C21.2382 12.2426 20.8859 12.5207 19.8616 13.5073C18.8373 14.4991 18.2249 15.2022 16.9459 16.8605C14.6263 19.8673 13.6995 21.3052 12.8595 23.2258C12.1658 24.7896 11.781 26.1382 11.1632 29.0716C10.7025 31.2808 10.4153 32.367 9.89499 33.8731C9.67821 34.508 9.4777 35.0748 9.45603 35.1325C9.43435 35.1902 9.64027 34.9803 9.92209 34.6602C11.0114 33.4428 13.1142 31.2598 15.5584 28.8197C17.2114 27.1667 17.7208 26.6314 18.0677 26.1697C18.2086 25.9807 18.6205 25.5557 18.989 25.2303C20.4794 23.8975 20.978 23.378 21.5471 22.5383C22.0457 21.7984 22.5497 21.1215 24.1864 18.97C25.9803 16.6086 26.4192 15.8687 28.8364 11.0724C30.4785 7.81368 30.6411 7.51981 31.5407 6.21317C32.4621 4.88029 32.6897 4.39751 32.603 3.95672C32.5217 3.53166 32.1802 3.41097 31.6816 3.64186Z" fill="#C9673C"/>
<path d="M36.9819 3.59458C36.8247 3.70478 36.7326 3.99865 36.7705 4.26627C36.8356 4.67558 37.0523 5.0744 37.8165 6.20262C38.7974 7.64046 38.9058 7.83462 40.4179 10.8362C43.0789 16.1205 43.3282 16.5351 45.832 19.8148C46.5149 20.7069 47.3604 21.8614 47.718 22.3809C48.2763 23.1995 48.4551 23.4146 49.0729 24.0076C49.4631 24.3854 50.0539 24.9364 50.3899 25.2303C50.7422 25.5451 51.1649 25.9859 51.3925 26.2798C51.6093 26.5579 52.3084 27.3083 52.9479 27.9433C55.5927 30.5776 58.503 33.5792 59.4514 34.6707C59.7061 34.9593 59.9229 35.1954 59.9337 35.1902C59.9392 35.1797 59.847 34.9173 59.7278 34.6024C59.1642 33.1384 58.7035 31.4591 58.1616 28.8564C57.7063 26.6944 57.5004 25.8862 57.0668 24.6478C56.5411 23.1208 55.8311 21.6724 54.9098 20.2556C54.189 19.1431 52.1675 16.4669 51.0077 15.0867C50.3032 14.2471 48.8778 12.8513 48.1841 12.3213C47.9023 12.1009 47.1815 11.5971 46.5854 11.2036C45.3443 10.3744 43.041 8.71096 42.2714 8.0865C41.2037 7.22065 40.8894 6.90055 40.3095 6.06619C39.7188 5.20559 39.1876 4.65459 38.4072 4.08261C37.6918 3.5631 37.2529 3.41092 36.9819 3.59458Z" fill="#C9673C"/>
<path d="M33.107 4.40793C32.4675 5.79853 31.7576 7.16815 31.0205 8.44331C29.8336 10.4846 29.6493 10.8309 28.6196 12.9247C27.113 15.9998 26.9721 16.2412 25.2324 18.7915C22.1161 23.3569 20.4415 25.2985 16.0625 29.4021C12.9137 32.3512 10.6538 34.5762 10.2636 35.1062C9.83002 35.6939 9.10379 36.7854 9.14173 36.7854C9.15798 36.7854 9.33142 36.6752 9.52652 36.5388C9.92215 36.2659 9.91129 36.2606 9.69992 36.8064C9.64573 36.9533 9.60238 37.074 9.61322 37.0793C9.61864 37.0845 10.6267 36.6437 11.8461 36.0927C14.8539 34.7441 15.9379 34.2718 17.5637 33.5949C18.3279 33.28 19.3197 32.8392 19.7695 32.6188C20.7884 32.1256 22.5877 31.1338 23.4114 30.609C24.5929 29.8586 27.1238 27.9485 27.5195 27.5077C28.392 26.5369 30.1479 24.0915 30.6194 23.1995C30.7929 22.8636 31.0909 22.2234 31.2752 21.7774C31.7142 20.7226 32.5001 18.4347 32.6301 17.8207C32.977 16.2202 33.3889 12.6676 33.3889 11.256C33.3889 10.8782 33.416 10.4059 33.4431 10.2065C33.5243 9.66074 33.7899 8.65321 34.0392 7.91855L34.2668 7.26785L34.2235 6.53844C34.191 5.89299 34.1801 5.81952 34.1096 5.90873C33.8441 6.26032 33.2263 8.83163 32.7385 11.6496C32.3483 13.8798 31.4595 17.6265 30.9771 19.0801C30.4243 20.7279 28.4787 23.7505 26.6523 25.7918C26.3705 26.1066 25.6064 26.857 24.9506 27.45C22.8261 29.3968 22.7015 29.486 19.298 31.4959C17.4336 32.5926 16.2359 33.2328 13.4449 34.6234C12.0683 35.3056 10.0847 36.2239 10.0522 36.1924C10.0143 36.1557 12.1117 34.7756 12.6861 34.466C13.0276 34.2771 14.3391 33.5896 15.6018 32.9337C18.3767 31.4959 18.7235 31.2964 19.8833 30.4988C21.6934 29.2499 25.189 26.7048 25.6064 26.3323C26.5819 25.4612 27.4599 24.0758 29.27 20.5757C30.2726 18.6288 30.5273 18.0673 30.9284 16.9234C31.4974 15.3176 31.8064 13.8745 32.1424 11.3085C32.2616 10.4111 32.3971 9.49282 32.4459 9.26193C32.641 8.3436 33.042 7.16815 33.4105 6.46497L33.5406 6.21834L33.3834 5.30001C33.2967 4.79625 33.2208 4.34496 33.21 4.30298C33.1992 4.25575 33.1558 4.29773 33.107 4.40793Z" fill="#C9673C"/>
<path d="M36.0066 5.22659L35.844 6.20264L36.0824 6.71166C36.3859 7.3676 36.7653 8.49058 36.9062 9.16227C36.9712 9.45088 37.0796 10.175 37.1555 10.7628C37.5945 14.1737 37.9847 15.8739 38.8139 17.9205C39.0903 18.6026 40.9871 22.2969 41.6483 23.4461C42.5642 25.0309 43.3717 26.0909 44.0492 26.5894C44.835 27.1772 48.5908 29.8744 49.317 30.3782C50.6502 31.307 50.97 31.4854 54.3626 33.2433C56.8448 34.529 57.2458 34.7546 58.3297 35.4893C58.888 35.8724 59.3324 36.1872 59.3269 36.1977C59.2944 36.224 57.1916 35.2532 55.9018 34.6077C52.856 33.0964 51.7829 32.5139 49.1924 30.9711C46.7265 29.5071 46.4013 29.2657 44.4231 27.4553C42.7647 25.9282 41.9898 25.0466 40.7433 23.273C39.4968 21.494 38.6838 19.9985 38.3207 18.8388C37.7788 17.0966 37.02 13.8431 36.619 11.5447C36.1312 8.7687 35.4863 6.10294 35.2424 5.8668C35.2099 5.83531 35.1774 6.06621 35.1503 6.53849L35.1069 7.2574L35.3833 8.10226C35.8656 9.57158 35.9903 10.2223 35.9903 11.3085C35.9903 12.6467 36.3534 15.8582 36.7003 17.6318C36.8141 18.2091 37.5836 20.5127 38.0172 21.5937C38.4941 22.7692 39.0794 23.8292 39.8436 24.8997C41.5562 27.2926 41.8434 27.6127 43.453 28.8196C45.0572 30.0266 45.6751 30.4516 46.6397 31.0236C48.4228 32.0679 49.7777 32.7448 51.7829 33.5844C53.4088 34.2614 54.8829 34.9068 57.3705 36.0246C58.3839 36.4758 59.3378 36.9061 59.4949 36.9691L59.7713 37.0898L59.6413 36.7172C59.5708 36.5126 59.5112 36.3394 59.5112 36.3237C59.5112 36.3132 59.6683 36.4129 59.858 36.5441C60.0531 36.6752 60.2212 36.7854 60.2374 36.7854C60.2862 36.7854 59.4624 35.5838 58.9963 34.975C58.6386 34.508 57.9992 33.8678 55.685 31.6691C50.325 26.5684 49.6097 25.8548 48.2602 24.291C46.7861 22.575 44.6562 19.6522 42.9273 16.9759C42.2987 16.0051 41.8922 15.2494 40.7053 12.8303C39.6702 10.7208 39.578 10.5581 38.3586 8.4486C37.8817 7.62473 37.1989 6.34957 36.8466 5.61491C36.4889 4.88026 36.1962 4.27154 36.1854 4.26629C36.1746 4.2558 36.0933 4.6861 36.0066 5.22659Z" fill="#C9673C"/>
<path d="M19.027 9.30397C17.1626 10.2065 16.3659 10.6946 15.4229 11.5132C14.5992 12.2269 12.4856 14.4938 11.716 15.4804C10.735 16.745 9.90041 19.1694 9.22296 22.722C9.03328 23.7085 9.0116 23.9657 9.16876 23.4304C9.66194 21.7354 10.5887 19.5682 11.6293 17.6843C12.1116 16.808 12.4205 16.3252 13.0329 15.4856C14.4908 13.4915 16.9025 11.1878 19.5256 9.28298C20.2247 8.77921 20.3114 8.71099 20.2735 8.71099C20.2572 8.71099 19.699 8.97862 19.027 9.30397Z" fill="#C9673C"/>
<path d="M49.1055 8.73724C49.1055 8.74773 49.2681 8.86842 49.474 9.00486C51.1324 10.1541 53.5116 12.2164 54.7906 13.6175C56.2539 15.218 57.1156 16.4617 58.1508 18.4662C59.0612 20.2189 59.7495 21.8719 60.1235 23.1785C60.2156 23.5091 60.3023 23.7558 60.3131 23.7295C60.3402 23.6456 60.0693 22.2182 59.8091 21.069C59.2618 18.6919 58.6114 16.8867 57.9123 15.8424C57.3053 14.9346 54.9749 12.4 53.8476 11.4292C53.2081 10.873 52.3843 10.3325 51.398 9.81823C50.688 9.4509 49.1055 8.7005 49.1055 8.73724Z" fill="#C9673C"/>
<path d="M10.8705 13.14C8.70811 13.6175 6.83293 14.2314 5.4672 14.9084C4.76807 15.26 4.56754 15.4069 4.21527 15.832C2.24797 18.2196 0.887683 21.2317 0.30237 24.4799C0.0747479 25.7394 -0.0661786 27.9486 0.0313735 28.678L0.074739 28.9928L0.193971 28.6518C0.649215 27.3556 2.10708 25.6082 3.44571 24.7423C4.0256 24.3697 5.1908 23.7663 6.29639 23.273C7.30985 22.8165 7.85723 22.4596 8.09027 22.0923C8.17157 21.9611 8.32873 21.5623 8.4317 21.2002C8.71894 20.2347 9.55356 17.0494 9.52646 17.0232C9.51562 17.0127 9.38554 17.1963 9.24463 17.4325C8.96823 17.8995 6.97927 21.0008 6.84378 21.174C6.75165 21.2947 6.75706 21.2737 7.03888 20.623C7.15811 20.3501 7.34237 19.8778 7.45618 19.5735C7.56999 19.2691 7.67297 18.991 7.68381 18.9595C7.70007 18.9228 7.23941 19.3478 6.65952 19.9041C5.45637 21.069 2.87122 23.4147 2.83328 23.378C2.81703 23.3622 2.88206 23.1995 2.97962 23.0159C3.31021 22.3862 4.33992 21.1582 5.84656 19.5997C6.26387 19.1642 6.59989 18.8073 6.58905 18.7968C6.58363 18.7916 6.27472 18.907 5.90619 19.054C5.01738 19.4108 4.67052 19.5315 4.79517 19.4528C4.84936 19.4213 5.14203 19.2376 5.44553 19.054C6.65409 18.3088 10.2473 15.7952 10.0955 15.7952C10.063 15.7952 9.17417 15.9736 8.12277 16.194C7.07138 16.4092 6.05794 16.6191 5.86826 16.6558C5.56476 16.7188 5.53765 16.7188 5.59726 16.6453C5.74901 16.4722 6.19342 16.3147 9.27173 15.3544C10.8922 14.8454 11.2445 14.6513 11.6726 14.0215C11.9002 13.6857 12.1441 13.1505 12.1441 12.9878C12.1441 12.8723 12.0195 12.8881 10.8705 13.14ZM3.96597 19.8673C3.80881 19.9408 3.65166 19.988 3.61914 19.9775C3.56495 19.9618 4.10689 19.7361 4.20444 19.7361C4.23696 19.7414 4.12856 19.7991 3.96597 19.8673ZM6.37769 21.9716C6.33433 22.0556 6.25846 22.1658 6.20969 22.2235C6.12297 22.3232 6.11755 22.3232 6.19342 22.1973C6.23678 22.1238 6.30182 22.0136 6.33975 21.9454C6.37227 21.8824 6.41563 21.8299 6.43189 21.8299C6.44273 21.8299 6.42104 21.8929 6.37769 21.9716Z" fill="#C9673C"/>
<path d="M57.2349 12.9773C57.2349 13.1137 57.4408 13.6385 57.5926 13.8851C57.8202 14.2629 58.27 14.667 58.6548 14.8454C59.0179 15.0081 59.8038 15.2705 61.5164 15.7952C62.8496 16.2045 63.5108 16.4512 63.7167 16.6086L63.8739 16.7293L63.5216 16.6611C63.3265 16.6191 62.3076 16.4092 61.2562 16.194C60.2048 15.9736 59.3214 15.7952 59.2889 15.7952C59.1209 15.7952 62.8008 18.377 64.0256 19.1117C64.3128 19.2901 64.5405 19.4423 64.5351 19.4528C64.5242 19.4633 64.1286 19.3163 63.6571 19.1274C63.1856 18.9385 62.7954 18.7916 62.7845 18.7968C62.7791 18.8073 63.0772 19.1327 63.4566 19.521C64.9903 21.111 66.1176 22.4544 66.4211 23.0526C66.5023 23.2205 66.562 23.3675 66.5457 23.378C66.5078 23.4147 63.9768 21.1215 62.752 19.9408C62.1613 19.3688 61.679 18.9175 61.679 18.928C61.679 18.9805 62.4106 20.8381 62.5027 21.0061C62.5623 21.1215 62.6003 21.2212 62.5894 21.2317C62.5678 21.2474 60.9419 18.7496 60.2644 17.6581C60.0531 17.3118 59.858 17.0127 59.8417 16.9864C59.7929 16.9392 60.7251 20.4918 60.969 21.2947C61.072 21.62 61.2183 21.9874 61.305 22.1185C61.5326 22.4649 62.08 22.8217 63.0826 23.273C64.1069 23.7348 65.3317 24.3645 65.852 24.6898C66.3452 24.9995 67.0606 25.6187 67.5863 26.1959C68.3613 27.0408 68.8328 27.7492 69.1363 28.5416L69.3097 28.9876L69.3476 28.6203C69.4018 28.1322 69.3422 26.4793 69.2392 25.6344C68.8219 22.2182 67.6513 19.2061 65.7057 16.5456C64.8657 15.3964 64.6651 15.2337 63.3048 14.6355C61.9824 14.053 60.4054 13.565 58.4814 13.14C57.3216 12.8881 57.2349 12.8776 57.2349 12.9773ZM65.6027 19.8936C65.7274 19.946 65.787 19.9933 65.7436 19.9933C65.7003 19.9933 65.5431 19.9356 65.3914 19.8621C65.0879 19.7152 65.2559 19.7414 65.6027 19.8936ZM63.2018 22.2235L63.256 22.3284L63.1693 22.2235C63.1205 22.1658 63.0555 22.0713 63.0284 22.0136L62.9742 21.9086L63.0609 22.0136C63.1097 22.0713 63.1747 22.1658 63.2018 22.2235Z" fill="#C9673C"/>
<path d="M31.9255 21.9506C30.0612 25.1883 28.7388 27.1876 27.9963 27.8908C27.3839 28.4733 25.5033 29.9111 24.1755 30.8084C23.3409 31.3752 21.1731 32.5874 20.2463 33.0072C19.6935 33.2591 18.6259 33.6684 16.29 34.5342C15.5747 34.7966 14.7942 35.1062 14.5558 35.2217C14.0897 35.4421 13.5911 35.7359 13.6236 35.7674C13.6345 35.7779 13.9325 35.7307 14.2902 35.6624C17.2601 35.0747 19.7694 34.3296 21.3628 33.5529C22.7827 32.8707 24.7771 31.6638 25.8935 30.8189C27.2376 29.8062 28.0559 29.0085 28.7984 27.9958C29.9744 26.4005 31.5895 23.4094 32.3049 21.5098C32.3916 21.2736 32.462 21.0742 32.4512 21.0637C32.4458 21.0585 32.2073 21.4573 31.9255 21.9506Z" fill="#C9673C"/>
<path d="M37.0524 21.4626C37.4751 22.6118 38.5048 24.7056 39.3232 26.0804C39.9193 27.0879 40.6727 28.1742 41.2038 28.7829C42.4882 30.2627 44.9812 32.0312 47.7073 33.3955C48.9429 34.0147 50.1135 34.445 51.8857 34.9226C53.0997 35.2479 55.7011 35.8199 55.7553 35.7727C55.7878 35.7359 55.3759 35.4945 54.8719 35.2479C54.6064 35.122 53.8314 34.8071 53.1431 34.5552C49.4307 33.1856 48.8129 32.918 47.0732 31.9314C45.8646 31.2493 45.366 30.9344 44.5531 30.3624C42.8676 29.1712 41.3935 27.9905 40.9978 27.5078C40.3475 26.7206 38.9818 24.5901 37.6702 22.3284C37.3017 21.6935 36.9819 21.1477 36.9548 21.1215C36.9277 21.09 36.9711 21.2474 37.0524 21.4626Z" fill="#C9673C"/>
<path d="M60.1181 35.5628C60.1777 35.7045 60.2807 35.8829 60.3458 35.9721C60.4379 36.098 60.4596 36.1085 60.4758 36.0351C60.4921 35.9668 60.0802 35.3161 60.0206 35.3161C60.0098 35.3161 60.0531 35.4263 60.1181 35.5628Z" fill="#C9673C"/>
<path d="M9.0875 35.6415C8.90323 35.9039 8.82195 36.1505 8.9466 36.077C9.01705 36.0351 9.34221 35.4211 9.30969 35.3896C9.29886 35.3739 9.19589 35.4893 9.0875 35.6415Z" fill="#C9673C"/>
</svg>
